<svg width="11" height="19" viewBox="0 0 11 19" fill="none" xmlns="http://www.w3.org/2000/svg">
<path d="M10.481 10.3502L2.13963 18.5875C1.90458 18.8196 1.58578 18.95 1.25337 18.95C0.920954 18.95 0.602155 18.8196 0.367103 18.5875C0.132051 18.3554 2.47668e-09 18.0405 0 17.7123C-2.47668e-09 17.384 0.132051 17.0692 0.367103 16.8371L7.8232 9.47603L0.369189 2.11294C0.252803 1.99801 0.16048 1.86156 0.0974921 1.71139C0.0345044 1.56122 0.00208498 1.40027 0.00208498 1.23773C0.00208498 1.07519 0.0345044 0.914242 0.0974921 0.764073C0.16048 0.613904 0.252803 0.477458 0.369189 0.362524C0.485575 0.24759 0.623745 0.156419 0.775811 0.094217C0.927876 0.0320151 1.09086 -1.21103e-09 1.25545 0C1.42005 1.21103e-09 1.58303 0.0320151 1.7351 0.094217C1.88716 0.156419 2.02533 0.24759 2.14172 0.362524L10.483 8.59979C10.5995 8.71472 10.6919 8.85122 10.7549 9.00149C10.8179 9.15175 10.8502 9.31281 10.85 9.47543C10.8498 9.63805 10.8171 9.79903 10.7538 9.94915C10.6904 10.0993 10.5977 10.2356 10.481 10.3502Z" fill="#666666"/>
</svg>
