<svg width="11" height="19" viewBox="0 0 11 19" fill="none" xmlns="http://www.w3.org/2000/svg">
<path d="M10.481 10.3503L2.13969 18.5875C1.90464 18.8197 1.58584 18.9501 1.25343 18.9501C0.921015 18.9501 0.602216 18.8197 0.367164 18.5875C0.132112 18.3554 6.10376e-05 18.0406 6.10352e-05 17.7123C6.10327e-05 17.3841 0.132112 17.0692 0.367164 16.8371L7.82326 9.47609L0.36925 2.113C0.252864 1.99807 0.160541 1.86162 0.0975531 1.71145C0.0345655 1.56129 0.00214602 1.40034 0.00214601 1.23779C0.00214601 1.07525 0.0345655 0.914303 0.0975531 0.764134C0.160541 0.613965 0.252864 0.477519 0.36925 0.362585C0.485636 0.247651 0.623806 0.15648 0.775872 0.094278C0.927937 0.0320761 1.09092 6.10339e-05 1.25551 6.10352e-05C1.42011 6.10364e-05 1.58309 0.0320761 1.73516 0.094278C1.88722 0.15648 2.02539 0.247651 2.14178 0.362585L10.4831 8.59985C10.5996 8.71478 10.692 8.85128 10.755 9.00155C10.8179 9.15181 10.8503 9.31287 10.8501 9.47549C10.8499 9.63811 10.8172 9.79909 10.7538 9.94921C10.6905 10.0993 10.5978 10.2356 10.481 10.3503Z" fill="black"/>
</svg>
