<svg width="440" height="320" viewBox="0 0 440 320" fill="none" xmlns="http://www.w3.org/2000/svg">
<g clip-path="url(#clip0_831_59954)">
<path d="M222.9 89.9391C218.977 82.8323 214.328 75.2443 207.047 72.9238C198.616 70.2364 189.955 75.5749 182.608 80.843C160.637 96.598 139.479 113.672 119.23 131.987L119.253 132.263C135.017 131.072 150.782 129.881 166.546 128.69C177.936 127.83 189.717 126.851 199.782 120.95C203.602 118.711 207.325 115.719 211.653 115.511C217.03 115.252 221.719 119.365 225.404 123.662C247.199 149.083 253.507 187.956 277.959 210.29C262.54 168.642 244.129 128.399 222.9 89.9391Z" fill="#F2F2F2"/>
<path d="M356.877 305.55C354.466 302.216 353.482 301.436 351.104 298.071C331.746 270.649 313.55 242.301 296.518 213.026C284.949 193.144 273.953 172.879 263.532 152.234C258.57 142.418 253.744 132.526 249.055 122.557C245.416 114.827 241.858 107.05 238.382 99.2278C237.387 96.9936 236.421 94.749 235.46 92.4994C233.195 87.2091 230.972 81.8931 228.585 76.6747C225.865 70.727 222.554 64.4916 217.56 60.4956C215.287 58.6024 212.569 57.4569 209.724 57.193C205.658 56.9054 201.906 58.7442 198.38 60.7524C172.578 75.4882 148.422 93.9632 126.574 114.986C104.669 136.056 85.0901 159.859 68.2357 185.912C67.72 186.718 66.5007 185.948 67.0211 185.136C69.0705 181.962 71.1605 178.822 73.2911 175.716C99.7836 137.126 132.267 103.94 169.258 77.6763C175.481 73.2591 181.821 69.0491 188.278 65.0463C191.533 63.0277 194.802 61.0349 198.126 59.1653C201.386 57.3317 204.847 55.683 208.57 55.6213C221.241 55.4056 227.802 71.1224 232.309 81.6979C233.725 85.0262 235.158 88.3442 236.609 91.6519C242.091 104.21 247.784 116.653 253.688 128.982C257.332 136.594 261.055 144.161 264.859 151.684C276.695 175.11 289.275 198.062 302.6 220.54C320.252 250.315 337.762 276.617 357.871 304.461C358.424 305.231 357.435 306.33 356.877 305.55Z" fill="#E4E4E4"/>
<path d="M125.321 107.224C124.585 106.325 123.853 105.426 123.112 104.527C117.269 97.4495 110.999 90.4539 102.976 86.3963C99.1497 84.4005 94.9732 83.3402 90.7358 83.2889C86.3558 83.3043 82.0743 84.5627 78.0273 86.3244C76.114 87.1616 74.2427 88.1118 72.3999 89.1236C70.2942 90.2844 68.226 91.5223 66.1675 92.7704C62.3032 95.1125 58.489 97.5573 54.725 100.105C47.2358 105.174 39.981 110.631 32.9608 116.474C29.3216 119.504 25.7575 122.634 22.2685 125.863C19.0234 128.863 15.8439 131.943 12.7301 135.103C12.0642 135.776 11.07 134.687 11.7358 134.014C12.5565 133.177 13.3866 132.345 14.2166 131.523C16.5614 129.202 18.9437 126.924 21.3636 124.692C25.7763 120.614 30.3033 116.693 34.9445 112.93C42.1617 107.075 49.6275 101.617 57.3416 96.5558C61.1965 94.0287 65.1045 91.6079 69.0655 89.2931C70.2614 88.5946 71.4714 87.9115 72.6953 87.2643C75.4724 85.7301 78.358 84.4436 81.324 83.4173C85.5254 81.9287 89.9706 81.4504 94.3562 82.0151C98.5907 82.6897 102.67 84.2355 106.38 86.571C114.259 91.3939 120.369 98.8516 126.315 106.13C126.916 106.869 125.926 107.963 125.321 107.224Z" fill="#E4E4E4"/>
<path d="M286.747 180.568L305.626 173.006L314.999 169.251C318.051 168.028 321.097 166.636 324.253 165.76C326.995 164.902 329.907 164.943 332.629 165.877C335.056 166.861 337.277 168.37 339.162 170.313C341.086 172.254 342.877 174.349 344.52 176.58C346.561 179.266 348.571 181.981 350.591 184.686C358.926 195.851 367.207 207.064 375.433 218.325C383.659 229.587 391.831 240.896 399.947 252.253C408.083 263.638 416.163 275.071 424.187 286.551C425.17 287.957 426.152 289.364 427.133 290.772C427.675 291.55 428.898 290.783 428.348 289.995C420.265 278.399 412.125 266.851 403.929 255.35C395.713 243.822 387.44 232.343 379.11 220.912C370.781 209.482 362.395 198.102 353.953 186.771C351.85 183.948 349.743 181.128 347.633 178.311C345.853 175.935 344.093 173.534 342.141 171.322C338.558 167.263 334.08 163.676 328.721 163.578C325.57 163.521 322.52 164.616 319.593 165.776C316.437 167.027 313.288 168.301 310.136 169.563L291.126 177.179L286.373 179.083C285.53 179.421 285.894 180.91 286.747 180.568Z" fill="#E4E4E4"/>
<path d="M100.489 95.3027C90.8949 89.9024 78.6089 90.9601 69.793 97.707C86.6086 100.884 103.24 105.136 119.603 110.44C112.808 106.079 107.493 99.2456 100.489 95.3027Z" fill="#F2F2F2"/>
<path d="M69.6985 97.6895L67.8516 99.3337C68.4763 98.7582 69.1257 98.2186 69.7929 97.7081C69.7614 97.7021 69.73 97.6954 69.6985 97.6895Z" fill="#F2F2F2"/>
<path d="M338.449 180.644C336.591 178.167 334.582 175.573 331.802 174.566L329.207 174.679C348.962 212.911 375.642 246.318 407.611 272.85C384.557 242.115 361.503 211.38 338.449 180.644Z" fill="#F2F2F2"/>
<path d="M177.072 160.205C178.273 164.984 180.978 169.143 184.71 171.948C186.152 173.023 187.859 174.056 188.353 175.889C188.612 177.058 188.452 178.291 187.906 179.335C187.36 180.365 186.696 181.314 185.931 182.159L185.861 182.446C182.281 180.122 178.875 177.183 176.897 173.173C174.92 169.163 174.643 163.907 177.072 160.205Z" fill="#F2F2F2"/>
<path d="M296.263 273.941C297.464 278.72 300.17 282.88 303.901 285.684C305.344 286.76 307.051 287.792 307.544 289.625C307.804 290.794 307.644 292.028 307.097 293.071C306.552 294.101 305.888 295.05 305.122 295.896L305.052 296.182C301.472 293.859 298.066 290.92 296.089 286.909C294.111 282.899 293.835 277.643 296.263 273.941Z" fill="#F2F2F2"/>
<path d="M58.392 266.098C59.5929 270.876 62.2985 275.036 66.03 277.84C67.4726 278.916 69.1795 279.948 69.673 281.782C69.9326 282.95 69.7727 284.184 69.2261 285.227C68.6805 286.257 68.0167 287.207 67.2509 288.052L67.181 288.339C63.6009 286.015 60.195 283.076 58.2175 279.065C56.2399 275.055 55.9638 269.799 58.392 266.098Z" fill="#F2F2F2"/>
<path d="M332.124 57.1481C346.533 57.1481 358.213 44.355 358.213 28.574C358.213 12.793 346.533 0 332.124 0C317.716 0 306.035 12.793 306.035 28.574C306.035 44.355 317.716 57.1481 332.124 57.1481Z" fill="#FEBFFF"/>
<path d="M379.206 6.65147C366.562 4.77962 352.127 12.2647 348.849 25.77C348.024 23.3688 346.522 21.3172 344.562 19.9118C342.602 18.5064 340.285 17.8198 337.945 17.9513C335.605 18.0828 333.364 19.0256 331.546 20.6434C329.727 22.2612 328.425 24.4703 327.828 26.9515L329.276 28.087C356.371 34.5045 384.419 34.3656 411.461 27.68C402.666 17.5564 391.849 8.52328 379.206 6.65147Z" fill="#F0F0F0"/>
<path d="M324.979 44.7491C312.335 42.8773 297.9 50.3623 294.623 63.8677C293.797 61.4664 292.296 59.4149 290.335 58.0095C288.375 56.604 286.058 55.9175 283.718 56.049C281.379 56.1805 279.138 57.1232 277.319 58.741C275.501 60.3588 274.199 62.5679 273.602 65.0491L275.049 66.1846C302.145 72.6022 330.193 72.4633 357.234 65.7777C348.439 55.6541 337.623 46.6209 324.979 44.7491Z" fill="#F0F0F0"/>
<path d="M435.333 51.9541C435.28 51.9542 435.228 51.9454 435.178 51.9278C299.921 5.07867 180.711 11.205 104.523 24.5942C94.1546 26.4156 83.7585 28.5194 73.6235 30.8475C71.036 31.4411 68.3516 32.0775 65.645 32.7401C62.4126 33.5285 59.2231 34.3405 56.1648 35.1524C54.844 35.4949 53.549 35.8402 52.2797 36.1882C50.3572 36.7079 48.4064 37.2496 46.3152 37.8449C43.9786 38.5047 41.6044 39.1969 39.2572 39.9022C39.2486 39.9055 39.2399 39.9082 39.231 39.9104L39.2312 39.9109C36.5801 40.7037 33.9429 41.5195 31.3926 42.3342C30.0123 42.7708 28.6795 43.2014 27.4029 43.6266C27.2603 43.6698 27.1339 43.7114 27.0057 43.7541L26.7315 43.8454C26.5726 43.8985 26.4158 43.9505 26.2589 43.9997L26.2489 44.003L26.2491 44.0036L25.834 44.1448C25.339 44.3089 24.8559 44.4692 24.3808 44.629C11.8248 48.8683 4.92242 51.8841 4.85423 51.9137C4.79187 51.941 4.72521 51.9547 4.65803 51.9538C4.59086 51.953 4.5245 51.9377 4.46273 51.9087C4.40096 51.8798 4.345 51.8378 4.29805 51.7852C4.25109 51.7326 4.21406 51.6703 4.18906 51.6021C4.16407 51.5338 4.15161 51.4607 4.15238 51.3872C4.15315 51.3136 4.16714 51.2409 4.19356 51.1733C4.21998 51.1056 4.2583 51.0443 4.30634 50.9929C4.35439 50.9415 4.41121 50.9009 4.47356 50.8735C4.54225 50.844 11.4784 47.8128 24.0801 43.5577C24.5569 43.3974 25.0412 43.2371 25.5378 43.0724L25.9234 42.941C25.9367 42.9356 25.9499 42.9312 25.9634 42.9268C26.1195 42.8781 26.2754 42.8261 26.4337 42.7736L26.7085 42.6822C26.8454 42.6368 26.9803 42.592 27.1184 42.5504C28.3863 42.128 29.7236 41.6963 31.1074 41.258C33.6586 40.4428 36.2983 39.627 38.9515 38.8331C38.9597 38.8298 38.9682 38.8276 38.9765 38.8249C41.3319 38.1174 43.7148 37.422 46.059 36.76C48.1534 36.1641 50.1079 35.6213 52.0337 35.1005C53.3083 34.753 54.6059 34.4071 55.9263 34.0625C58.9881 33.2495 62.184 32.4364 65.4222 31.6463C68.133 30.9832 70.8219 30.3452 73.4136 29.751C83.5645 27.4191 93.9768 25.3121 104.361 23.4879C180.658 10.0796 300.039 3.94334 435.487 50.8598C435.603 50.9001 435.703 50.9847 435.767 51.0983C435.832 51.2119 435.857 51.347 435.838 51.4792C435.82 51.6114 435.759 51.732 435.666 51.8191C435.573 51.9062 435.455 51.9541 435.333 51.9541Z" fill="#CCCCCC"/>
<path d="M134.534 235.225C134.357 234.658 134.058 234.145 133.664 233.729C133.518 233.581 133.361 233.448 133.193 233.331C131.858 232.356 129.863 232.138 128.595 233.331C128.467 233.453 128.349 233.586 128.242 233.729C127.863 234.239 127.474 234.738 127.075 235.225C126.421 236.043 125.75 236.833 125.05 237.601C124.85 237.813 124.651 238.032 124.446 238.245C124.328 238.374 124.211 238.497 124.093 238.62C123.643 239.091 123.182 239.545 122.717 239.993C122.471 240.234 122.226 240.469 121.975 240.699C121.602 241.041 121.228 241.382 120.85 241.713C120.814 241.741 120.778 241.769 120.742 241.803C120.732 241.808 120.727 241.819 120.717 241.825C120.712 241.825 120.706 241.825 120.701 241.836C120.688 241.842 120.675 241.852 120.666 241.864C120.553 241.948 120.476 242.004 120.42 242.055C120.44 242.044 120.461 242.027 120.481 242.016C120.389 242.094 120.292 242.172 120.2 242.251C119.305 242.974 118.389 243.668 117.453 244.318C115.137 245.942 112.704 247.356 110.179 248.548C110.01 248.621 109.836 248.7 109.662 248.772C103.05 251.739 95.8777 252.897 88.7653 252.145C88.0389 252.084 87.3125 252 86.5861 251.893C85.7472 251.759 84.9134 251.596 84.0847 251.411C80.9297 250.722 77.8428 249.701 74.8665 248.363C71.1435 246.496 67.6026 244.221 64.2979 241.573C63.7864 241.175 63.2697 240.777 62.753 240.391C63.3413 238.811 63.9194 237.231 64.4821 235.64C64.7634 234.872 65.0345 234.104 65.3006 233.331C67.3928 227.376 69.3571 221.364 71.2396 215.33C73.1426 209.217 74.9381 203.069 76.6263 196.885C76.8002 196.258 76.969 195.63 77.1327 195.003C78.0177 191.736 78.8668 188.463 79.6802 185.181C79.7569 184.862 79.8388 184.548 79.9104 184.229C80.1457 183.288 80.3759 182.346 80.601 181.405C81.1126 179.282 79.9564 176.743 77.9205 176.234C76.9402 175.958 75.9007 176.111 75.0209 176.658C74.141 177.206 73.4897 178.106 73.204 179.169C72.984 180.077 72.7641 180.979 72.539 181.887C71.4596 186.274 70.324 190.646 69.1321 195.003C68.9581 195.63 68.7842 196.258 68.6103 196.885C65.9809 206.376 63.0941 215.772 59.9497 225.073C59.5712 226.199 59.1875 227.321 58.7987 228.44C58.6095 228.989 58.4202 229.538 58.2258 230.087C57.8524 231.169 57.4687 232.25 57.0851 233.331C56.8651 233.964 56.64 234.597 56.4149 235.225C56.2666 235.623 56.1233 236.021 55.9801 236.413C54.5216 235.839 53.0105 235.441 51.4734 235.225L51.2278 235.191C50.0361 235.034 48.8309 235.046 47.6418 235.225C45.8622 235.452 44.1499 236.105 42.626 237.137C41.102 238.169 39.8037 239.555 38.8227 241.198C36.3826 245.405 36.4133 251.423 39.8356 254.997C43.3602 258.678 48.6956 258.65 52.8443 256.347C55.0428 255.045 56.8966 253.142 58.2258 250.823C58.735 249.983 59.2029 249.113 59.6275 248.218C59.7349 248.296 59.8423 248.375 59.9497 248.459C60.359 248.772 60.7682 249.092 61.1723 249.406C63.527 251.274 66.0084 252.943 68.5949 254.398C74.1565 257.426 80.1431 259.409 86.3048 260.264C86.4429 260.28 86.5759 260.303 86.714 260.32C87.3944 260.415 88.0799 260.488 88.7653 260.549C98.5984 261.361 108.444 259.157 117.197 254.185C117.939 253.765 118.674 253.324 119.402 252.862C120.533 252.145 121.638 251.383 122.717 250.577C123.305 250.14 123.878 249.697 124.446 249.232C126.927 247.23 129.24 244.99 131.357 242.537C132.16 241.612 132.929 240.658 133.664 239.674C134.359 238.868 134.76 237.812 134.789 236.704C134.785 236.198 134.699 235.697 134.534 235.225ZM49.8262 248.571C49.9336 248.487 50.041 248.397 50.1433 248.307C50.1127 248.391 49.9643 248.487 49.8262 248.571ZM51.4682 246.761C51.3506 246.907 51.2432 247.052 51.1255 247.198C50.7676 247.637 50.383 248.049 49.9745 248.431C49.9182 248.487 49.8569 248.543 49.7955 248.593C49.7948 248.593 49.7941 248.593 49.7935 248.594C49.7929 248.594 49.7923 248.594 49.7918 248.595C49.7913 248.595 49.791 248.596 49.7907 248.597C49.7905 248.597 49.7903 248.598 49.7904 248.599C49.7165 248.635 49.6447 248.676 49.5755 248.722C49.3555 248.868 49.1304 249.002 48.9003 249.125C48.4496 249.307 47.9859 249.448 47.514 249.546C47.1514 249.575 46.7874 249.578 46.4244 249.557H46.4141C46.1636 249.496 45.916 249.421 45.6724 249.333C45.5496 249.265 45.432 249.187 45.3143 249.109C45.2683 249.064 45.2273 249.019 45.2018 248.991C45.1518 248.941 45.1056 248.887 45.0637 248.828C45.0637 248.828 45.0636 248.827 45.0633 248.826C45.063 248.826 45.0627 248.825 45.0622 248.824C45.0617 248.824 45.0611 248.824 45.0605 248.823C45.0599 248.823 45.0592 248.823 45.0586 248.823C45.0023 248.711 44.9409 248.599 44.8846 248.487C44.8817 248.484 44.8799 248.48 44.8795 248.476C44.8386 248.335 44.8028 248.19 44.7721 248.044C44.761 247.788 44.7627 247.532 44.7772 247.277C44.8458 246.919 44.9382 246.567 45.0534 246.223C45.157 245.98 45.2749 245.744 45.4064 245.517C45.4166 245.495 45.4678 245.405 45.5241 245.304C45.5292 245.299 45.5292 245.299 45.5292 245.293C45.6059 245.198 45.6826 245.097 45.7645 245.007C45.9026 244.839 46.051 244.694 46.1993 244.542C46.4878 244.336 46.7867 244.147 47.0945 243.976C47.5829 243.786 48.084 243.639 48.5934 243.534C49.3445 243.469 50.0994 243.476 50.8493 243.556C51.5596 243.691 52.2604 243.88 52.9466 244.122C52.5307 245.006 52.0572 245.856 51.5297 246.666C51.5092 246.699 51.4887 246.733 51.4682 246.761ZM45.7798 244.918C45.7347 244.997 45.6815 245.07 45.6212 245.136C45.6618 245.054 45.7155 244.98 45.7798 244.918Z" fill="white"/>
<path d="M119.156 178.005C119.11 179.764 119.064 181.523 119.018 183.283C118.921 187.188 118.82 191.095 118.716 195.004C118.609 199.402 118.496 203.798 118.378 208.192C118.322 210.462 118.264 212.731 118.205 215C118.046 221.112 117.889 227.223 117.734 233.332C117.719 233.965 117.698 234.593 117.683 235.226C117.606 238.257 117.529 241.288 117.453 244.319C117.366 247.608 117.28 250.897 117.197 254.185C117.135 256.651 117.072 259.118 117.008 261.587C116.547 279.476 116.087 297.366 115.626 315.255C115.607 316.363 115.196 317.42 114.481 318.203C113.766 318.987 112.801 319.436 111.79 319.457C110.775 319.449 109.804 319.003 109.086 318.217C108.368 317.431 107.961 316.367 107.953 315.255C108.209 305.193 108.468 295.13 108.731 285.068C108.961 275.969 109.194 266.87 109.431 257.771C109.508 254.774 109.585 251.774 109.662 248.773C109.779 244.257 109.895 239.742 110.01 235.226C110.025 234.593 110.045 233.965 110.061 233.332C110.071 232.777 110.086 232.228 110.102 231.674C110.327 222.905 110.552 214.135 110.777 205.363C110.869 201.912 110.958 198.459 111.043 195.004C111.145 191.065 111.247 187.128 111.35 183.193C111.396 181.462 111.437 179.736 111.483 178.005C111.502 176.897 111.913 175.841 112.628 175.057C113.343 174.274 114.308 173.824 115.319 173.803C116.334 173.812 117.306 174.257 118.023 175.043C118.741 175.83 119.148 176.893 119.156 178.005Z" fill="white"/>
<path d="M329.622 179.171C325.599 195.856 320.79 212.302 315.216 228.443C313.678 232.895 312.104 237.338 310.422 241.728L310.809 240.724C310.058 242.815 309.099 244.809 307.949 246.67C307.871 246.79 307.792 246.908 307.711 247.026C308.108 246.47 308.184 246.36 307.937 246.696C307.807 246.865 307.679 247.034 307.544 247.198C307.186 247.637 306.802 248.049 306.394 248.432C306.291 248.529 306.187 248.623 306.081 248.715L306.561 248.306C306.505 248.45 306.114 248.641 305.993 248.723C305.598 248.983 305.187 249.211 304.762 249.405L305.679 248.982C304.983 249.289 304.256 249.507 303.514 249.632L304.534 249.482C303.805 249.592 303.067 249.601 302.336 249.508L303.356 249.658C302.758 249.568 302.172 249.395 301.614 249.144L302.53 249.568C302.232 249.425 301.945 249.258 301.672 249.066C301.533 248.966 301.106 248.613 301.664 249.079C302.244 249.564 301.738 249.121 301.619 248.992C301.52 248.885 301.43 248.768 301.333 248.659C300.882 248.152 301.843 249.531 301.536 248.938C301.372 248.641 301.222 248.335 301.087 248.021L301.473 249.025C301.297 248.547 301.172 248.049 301.101 247.539L301.238 248.656C301.165 248.023 301.164 247.382 301.236 246.749L301.099 247.866C301.193 247.159 301.364 246.466 301.608 245.804L301.221 246.808C301.392 246.362 301.593 245.931 301.824 245.52C301.93 245.307 302.055 245.106 302.197 244.92C302.222 244.928 301.548 245.767 301.905 245.344C301.999 245.233 302.087 245.116 302.181 245.006C302.333 244.831 302.495 244.67 302.655 244.503C303.189 243.946 301.907 245.045 302.523 244.604C302.97 244.282 303.441 244.001 303.93 243.764L303.013 244.187C303.832 243.819 304.691 243.567 305.569 243.437L304.549 243.587C305.648 243.448 306.758 243.463 307.854 243.63L306.834 243.479C308.221 243.71 309.577 244.128 310.871 244.723L309.954 244.3C312.711 245.596 315.153 247.521 317.591 249.408C319.945 251.275 322.426 252.944 325.011 254.398C330.573 257.427 336.56 259.411 342.722 260.266C351.56 261.452 360.527 260.188 368.803 256.59C377.078 252.993 384.396 247.176 390.084 239.675C390.779 238.869 391.178 237.812 391.208 236.704C391.201 235.591 390.798 234.525 390.084 233.733C388.677 232.317 386.018 231.918 384.659 233.733C383.37 235.455 381.985 237.088 380.512 238.622C379.824 239.337 379.117 240.03 378.393 240.701C377.979 241.084 377.559 241.459 377.134 241.827C376.933 242.002 376.306 242.465 377.268 241.717C377.048 241.888 376.836 242.076 376.618 242.252C373.397 244.853 369.906 247.028 366.218 248.731L367.134 248.308C363.177 250.126 359.02 251.373 354.769 252.018L355.789 251.868C351.416 252.498 346.986 252.491 342.615 251.847L343.635 251.997C339.265 251.339 334.99 250.064 330.919 248.204L331.836 248.627C327.907 246.723 324.179 244.358 320.717 241.573C318.915 240.111 317.014 238.801 315.032 237.654C312.722 236.362 310.221 235.53 307.646 235.195C302.818 234.573 297.897 236.633 295.243 241.202C292.8 245.406 292.831 251.423 296.252 254.998C299.776 258.681 305.112 258.65 309.264 256.346C313.263 254.128 315.665 249.519 317.354 245.173C321.156 235.394 324.521 225.388 327.657 215.331C330.759 205.382 333.572 195.332 336.097 185.181C336.409 183.924 336.717 182.665 337.021 181.406C337.533 179.283 336.376 176.744 334.341 176.237C333.361 175.96 332.32 176.112 331.44 176.659C330.559 177.207 329.907 178.107 329.622 179.171Z" fill="white"/>
<path d="M367.903 178.005L366.522 231.675L365.148 285.066L364.371 315.256C364.38 316.367 364.787 317.431 365.504 318.217C366.222 319.003 367.193 319.449 368.208 319.458C369.219 319.437 370.184 318.987 370.899 318.204C371.614 317.42 372.025 316.364 372.044 315.256L373.425 261.585L374.799 208.194L375.576 178.005C375.567 176.893 375.16 175.83 374.443 175.044C373.725 174.258 372.754 173.812 371.739 173.803C370.728 173.824 369.763 174.274 369.048 175.057C368.333 175.841 367.922 176.897 367.903 178.005Z" fill="white"/>
<path opacity="0.2" d="M235.104 300.271H236.295V240.858H264.087V239.557H236.295V214.488H257.758C257.443 214.049 257.119 213.617 256.786 213.19H236.295V196.632C235.901 196.448 235.504 196.27 235.104 196.103V213.19H211.751V191.975C211.351 191.995 210.957 192.025 210.559 192.062V213.19H191.929V197.361C191.529 197.555 191.135 197.759 190.744 197.973V213.19H175.082V214.488H190.744V239.557H175.082V240.858H190.744V300.271H191.929V240.858C194.376 240.858 196.798 241.385 199.059 242.41C201.32 243.436 203.374 244.939 205.104 246.834C206.834 248.729 208.206 250.978 209.142 253.454C210.078 255.93 210.56 258.584 210.559 261.264V300.271H211.751V240.858H235.104V300.271ZM191.929 239.557V214.488H210.559V239.557H191.929ZM211.751 239.557V214.488H212.218C215.224 214.488 218.2 215.136 220.977 216.396C223.753 217.656 226.276 219.503 228.402 221.831C230.527 224.159 232.212 226.922 233.362 229.964C234.513 233.005 235.104 236.265 235.104 239.557H211.751Z" fill="black"/>
<path d="M227.827 282.456C226.327 289.784 222.734 296.398 217.57 301.338C217.191 301.696 216.813 302.044 216.419 302.385C215.462 302.481 214.513 302.578 213.57 302.677C212.787 302.755 212.015 302.839 211.247 302.918L211.109 302.935L211.012 302.016L210.623 298.295C209.115 295.599 208.18 292.565 207.888 289.419C207.596 286.272 207.954 283.094 208.935 280.12C210.286 276.131 212.731 272.607 215.135 269.111C218.455 264.281 221.683 259.508 221.8 253.619C223.434 255.909 224.792 258.419 225.842 261.088C224.851 261.598 223.962 262.316 223.223 263.2C223.013 263.452 222.803 263.805 222.946 264.108C223.069 264.365 223.376 264.427 223.642 264.46C224.282 264.533 224.926 264.606 225.566 264.679C226.077 264.741 226.589 264.797 227.1 264.858C227.719 267.083 228.139 269.369 228.353 271.682C228.698 275.282 228.52 278.918 227.827 282.456Z" fill="white"/>
<path d="M244.813 267.772C241.795 270.176 240.03 273.633 238.659 277.443C237.254 277.935 235.99 278.819 234.991 280.009C234.781 280.261 234.571 280.614 234.715 280.916C234.837 281.174 235.144 281.236 235.41 281.269C236.05 281.342 236.694 281.415 237.334 281.488C235.963 285.992 234.704 290.654 232.28 294.458C230.667 296.97 228.565 299.058 226.126 300.571C225.461 300.986 224.774 301.358 224.069 301.686C221.471 301.904 218.921 302.138 216.422 302.386C215.465 302.481 214.515 302.579 213.572 302.677C212.79 302.756 212.017 302.84 211.25 302.918C211.245 302.61 211.245 302.302 211.25 301.994C211.412 293.785 214.169 285.892 219.051 279.661C219.281 279.37 219.517 279.084 219.757 278.799C222.23 275.905 225.139 273.498 228.356 271.683C233.425 268.796 239.107 267.446 244.813 267.772Z" fill="#FEBFFF"/>
<path d="M214.458 299.804L213.87 301.709L213.573 302.678C212.791 302.756 212.018 302.84 211.251 302.919L211.113 302.936C210.264 303.031 209.419 303.126 208.575 303.221C208.355 302.941 208.135 302.655 207.921 302.364C202.581 295.282 200.018 286.174 200.792 277.029C201.565 267.883 205.612 259.445 212.049 253.559C211.374 257.43 212.161 261.139 213.456 264.82C213.317 264.882 213.184 264.943 213.057 265.011C212.066 265.521 211.177 266.239 210.437 267.123C210.228 267.375 210.018 267.728 210.161 268.031C210.284 268.288 210.591 268.35 210.857 268.383C211.496 268.456 212.141 268.529 212.78 268.602C213.292 268.664 213.803 268.72 214.315 268.781C214.555 268.809 214.796 268.837 215.036 268.865C215.072 268.949 215.103 269.028 215.139 269.112C216.597 272.574 218.167 276.054 219.052 279.662C219.274 280.567 219.448 281.486 219.574 282.413C219.968 285.546 219.712 288.737 218.827 291.747C217.941 294.758 216.448 297.511 214.458 299.804Z" fill="#FEBFFF"/>
<path d="M265.946 218.542C261.543 209.134 254.72 201.218 246.696 195.401C238.646 189.592 229.408 186.054 219.807 185.103C218.549 184.978 217.287 184.904 216.022 184.883C214.528 184.858 192.048 191.96 184.518 197.759C176.991 203.488 170.8 211.074 166.443 219.905C162.094 228.785 159.955 238.762 160.24 248.834C160.613 258.967 163.192 268.855 167.761 277.675C172.269 286.466 178.668 293.918 186.404 299.383C194.25 304.866 202.132 319.405 211.396 319.918C220.729 320.435 231.374 306.721 239.887 302.557C248.399 298.358 255.759 291.789 261.231 283.505C266.549 275.386 269.99 265.975 271.257 256.08C272.574 245.949 271.96 235.5 268.801 225.816C267.99 223.328 267.037 220.899 265.946 218.542C265.036 216.578 262.368 215.855 260.697 217.035C259.837 217.615 259.213 218.536 258.957 219.607C258.701 220.678 258.831 221.816 259.321 222.784C259.855 223.937 260.353 225.11 260.812 226.301L260.425 225.297C262.165 229.878 263.347 234.688 263.943 239.606L263.806 238.489C264.44 243.824 264.428 249.227 263.772 254.559L263.909 253.442C263.246 258.773 261.947 263.986 260.045 268.947L260.431 267.943C259.453 270.474 258.313 272.926 257.019 275.282C256.363 276.472 255.667 277.633 254.931 278.767C254.608 279.265 254.275 279.754 253.939 280.242C253.501 280.878 254.536 279.411 254.084 280.035C254.007 280.141 253.93 280.248 253.853 280.354C253.62 280.672 253.385 280.987 253.146 281.299C251.551 283.383 249.81 285.328 247.94 287.117C247.474 287.562 247 287.998 246.519 288.423C246.279 288.635 246.042 288.856 245.792 289.053C245.802 289.046 246.6 288.381 246.127 288.767C245.979 288.888 245.832 289.011 245.683 289.132C244.69 289.937 243.672 290.701 242.626 291.425C240.22 293.085 237.696 294.53 235.078 295.746L235.995 295.322C231.479 297.405 226.732 298.827 221.878 299.553L222.898 299.403C218.045 300.122 213.127 300.131 208.273 299.432L209.293 299.582C204.881 298.933 200.565 297.655 196.455 295.781L197.372 296.204C194.991 295.103 192.696 293.794 190.509 292.287C189.426 291.54 188.372 290.747 187.346 289.908C187.199 289.788 187.054 289.666 186.908 289.546C186.44 289.159 187.245 289.832 187.251 289.836C186.979 289.622 186.717 289.393 186.466 289.15C185.97 288.708 185.482 288.256 185.002 287.793C183.081 285.94 181.287 283.934 179.634 281.793C179.221 281.257 178.816 280.714 178.42 280.162C178.248 279.923 177.936 279.439 178.627 280.458C178.536 280.324 178.441 280.193 178.35 280.059C178.129 279.739 177.912 279.416 177.697 279.091C176.946 277.953 176.232 276.786 175.555 275.592C174.025 272.888 172.69 270.058 171.562 267.127L171.949 268.131C170.103 263.32 168.84 258.265 168.194 253.095L168.331 254.212C167.747 249.446 167.739 244.617 168.306 239.849L168.169 240.966C168.75 236.348 169.884 231.835 171.542 227.542L171.156 228.546C172.199 225.858 173.429 223.263 174.836 220.783C175.541 219.541 176.287 218.33 177.076 217.149C177.255 216.881 177.436 216.614 177.619 216.349C177.785 216.11 178.241 215.513 177.463 216.567C177.539 216.464 177.613 216.357 177.688 216.253C178.12 215.653 178.564 215.061 179.018 214.48C180.735 212.277 182.596 210.214 184.585 208.305C185.088 207.823 185.598 207.35 186.117 206.888C186.352 206.678 186.59 206.47 186.828 206.265C186.924 206.182 187.021 206.102 187.116 206.019C186.094 206.909 186.832 206.261 187.064 206.071C188.132 205.194 189.23 204.361 190.356 203.571C192.859 201.818 195.491 200.299 198.227 199.029L197.31 199.452C201.28 197.627 218.867 193.318 222.066 193.788L221.046 193.638C225.748 194.357 230.343 195.747 234.715 197.774L233.798 197.351C236.014 198.381 238.167 199.565 240.244 200.897C241.282 201.563 242.299 202.266 243.296 203.005C243.768 203.354 244.235 203.712 244.697 204.078C244.928 204.26 245.158 204.445 245.386 204.632C245.513 204.735 245.638 204.84 245.765 204.944C246.297 205.381 245.033 204.312 245.59 204.795C247.455 206.4 249.227 208.131 250.894 209.979C251.713 210.892 252.503 211.835 253.266 212.806C253.657 213.304 254.04 213.81 254.415 214.323C254.601 214.578 255.236 215.5 254.458 214.37C254.648 214.646 254.84 214.921 255.028 215.199C256.645 217.595 258.08 220.132 259.321 222.784C260.238 224.744 262.895 225.474 264.57 224.291C265.431 223.711 266.055 222.79 266.311 221.719C266.567 220.648 266.437 219.51 265.946 218.542Z" fill="white"/>
<path d="M221.242 287.116C220.846 287.136 220.454 287.022 220.119 286.789C219.784 286.557 219.523 286.218 219.37 285.817C219.217 285.417 219.18 284.974 219.264 284.55C219.349 284.126 219.55 283.74 219.841 283.445C219.89 283.233 219.925 283.08 219.974 282.868C219.956 282.822 219.939 282.776 219.921 282.73C218.141 278.081 206.782 291.041 206.291 295.41C206.074 297.341 206.166 299.299 206.56 301.196C202.881 292.405 200.97 282.851 200.958 273.181C200.957 270.754 201.08 268.329 201.327 265.918C201.53 263.941 201.813 261.978 202.174 260.029C204.146 249.455 208.381 239.543 214.529 231.109C218.045 231.324 221.127 230.738 221.425 223.274C221.478 221.946 222.377 220.797 222.575 219.489C222.239 219.537 221.898 219.567 221.562 219.591C221.458 219.597 221.348 219.603 221.243 219.609L221.204 219.611C220.835 219.629 220.469 219.53 220.15 219.326C219.831 219.122 219.573 218.821 219.407 218.459C219.241 218.098 219.173 217.692 219.213 217.29C219.253 216.888 219.397 216.507 219.63 216.193C219.775 215.997 219.92 215.802 220.065 215.607C220.285 215.306 220.511 215.01 220.731 214.709C220.757 214.68 220.78 214.65 220.803 214.618C221.056 214.275 221.309 213.937 221.562 213.594C221.1 212.808 220.479 212.15 219.746 211.671C217.209 210.044 213.709 211.171 211.876 213.684C210.038 216.198 209.692 219.724 210.33 222.864C210.958 225.536 211.996 228.072 213.401 230.362C213.263 230.555 213.12 230.742 212.983 230.935C210.468 234.477 208.276 238.28 206.438 242.29C206.958 237.843 200.6 221.78 198.142 218.378C195.189 214.291 189.133 216.074 188.613 221.255C188.608 221.305 188.603 221.355 188.598 221.405C188.963 221.631 189.321 221.87 189.67 222.124C190.11 222.445 190.45 222.905 190.647 223.442C190.844 223.979 190.888 224.569 190.774 225.134C190.66 225.699 190.392 226.213 190.007 226.609C189.621 227.004 189.135 227.263 188.613 227.351L188.559 227.36C183.671 235.005 199.342 254.901 203.264 250.433C201.418 256.164 200.26 262.133 199.819 268.19C199.569 271.764 199.584 275.354 199.863 278.925L199.846 278.798C198.975 271.02 184.024 259.456 179.657 260.419C177.142 260.974 174.665 260.848 175.047 263.627C175.053 263.671 175.059 263.716 175.066 263.76C175.743 264.062 176.403 264.41 177.041 264.803C177.406 265.028 177.764 265.268 178.114 265.521C178.553 265.843 178.893 266.302 179.09 266.839C179.287 267.376 179.331 267.966 179.217 268.531C179.103 269.096 178.835 269.61 178.45 270.006C178.064 270.402 177.578 270.66 177.056 270.749L177.003 270.758C176.964 270.764 176.931 270.77 176.893 270.776C174.668 279.161 191.169 292.694 201.2 288.388H201.206C202.2 293.119 203.64 297.725 205.504 302.13H220.858C220.913 301.943 220.962 301.751 221.012 301.564C219.591 301.662 218.164 301.568 216.763 301.286C217.903 299.755 219.042 298.212 220.181 296.682C220.206 296.653 220.23 296.623 220.252 296.591C220.83 295.808 221.414 295.03 221.991 294.246L221.992 294.246C222.023 291.844 221.771 289.447 221.243 287.116L221.242 287.116ZM203.66 249.234L203.668 249.222L203.66 249.246V249.234ZM200.259 282.812L200.127 282.487C200.133 282.252 200.133 282.017 200.127 281.776C200.127 281.709 200.116 281.643 200.116 281.577C200.166 281.993 200.21 282.409 200.265 282.825L200.259 282.812Z" fill="white"/>
<path d="M48.7247 252.123C51.8324 252.123 54.3518 249.364 54.3518 245.96C54.3518 242.556 51.8324 239.797 48.7247 239.797C45.617 239.797 43.0977 242.556 43.0977 245.96C43.0977 249.364 45.617 252.123 48.7247 252.123Z" fill="white"/>
<path d="M116.248 319.357C119.356 319.357 121.875 316.598 121.875 313.194C121.875 309.791 119.356 307.031 116.248 307.031C113.14 307.031 110.621 309.791 110.621 313.194C110.621 316.598 113.14 319.357 116.248 319.357Z" fill="white"/>
<path d="M372.537 319.357C375.645 319.357 378.164 316.598 378.164 313.194C378.164 309.791 375.645 307.031 372.537 307.031C369.429 307.031 366.91 309.791 366.91 313.194C366.91 316.598 369.429 319.357 372.537 319.357Z" fill="white"/>
<path d="M386.346 240.918C389.454 240.918 391.973 238.159 391.973 234.755C391.973 231.351 389.454 228.592 386.346 228.592C383.238 228.592 380.719 231.351 380.719 234.755C380.719 238.159 383.238 240.918 386.346 240.918Z" fill="white"/>
<path d="M369.979 183.769C373.086 183.769 375.606 181.01 375.606 177.606C375.606 174.203 373.086 171.443 369.979 171.443C366.871 171.443 364.352 174.203 364.352 177.606C364.352 181.01 366.871 183.769 369.979 183.769Z" fill="white"/>
<path d="M135.175 234.754C135.171 236.329 134.615 237.841 133.622 238.979C132.629 240.117 131.274 240.793 129.838 240.868C128.403 240.942 126.996 240.409 125.909 239.379C124.822 238.349 124.138 236.9 123.999 235.334C123.86 233.767 124.276 232.201 125.162 230.961C126.047 229.721 127.334 228.901 128.756 228.671C130.178 228.441 131.626 228.819 132.801 229.726C133.976 230.633 134.787 232 135.067 233.544C135.139 233.943 135.175 234.348 135.175 234.754Z" fill="white"/>
<path d="M247.717 201.699C250.825 201.699 253.344 198.94 253.344 195.536C253.344 192.132 250.825 189.373 247.717 189.373C244.609 189.373 242.09 192.132 242.09 195.536C242.09 198.94 244.609 201.699 247.717 201.699Z" fill="white"/>
<path d="M191.96 195.536C191.956 197.11 191.401 198.622 190.407 199.76C189.414 200.898 188.059 201.574 186.624 201.649C185.188 201.723 183.781 201.19 182.694 200.16C181.607 199.13 180.923 197.682 180.784 196.115C180.645 194.548 181.061 192.982 181.947 191.742C182.832 190.502 184.119 189.682 185.541 189.452C186.963 189.223 188.411 189.6 189.586 190.507C190.761 191.414 191.572 192.781 191.852 194.325C191.924 194.724 191.96 195.129 191.96 195.536Z" fill="white"/>
<path d="M119.319 177.608C119.316 179.182 118.76 180.695 117.767 181.833C116.773 182.971 115.419 183.647 113.983 183.721C112.547 183.795 111.14 183.262 110.053 182.232C108.966 181.202 108.283 179.754 108.143 178.187C108.004 176.62 108.421 175.055 109.306 173.815C110.191 172.574 111.478 171.755 112.9 171.525C114.322 171.295 115.77 171.673 116.945 172.58C118.12 173.487 118.932 174.854 119.212 176.398C119.284 176.796 119.32 177.202 119.319 177.608Z" fill="white"/>
<path d="M306.545 254.365C309.653 254.365 312.172 251.606 312.172 248.202C312.172 244.798 309.653 242.039 306.545 242.039C303.437 242.039 300.918 244.798 300.918 248.202C300.918 251.606 303.437 254.365 306.545 254.365Z" fill="white"/>
<path d="M218.048 198.337C222.568 198.337 226.233 194.324 226.233 189.373C226.233 184.422 222.568 180.408 218.048 180.408C213.528 180.408 209.863 184.422 209.863 189.373C209.863 194.324 213.528 198.337 218.048 198.337Z" fill="white"/>
<path d="M439.391 319.828L0.609089 320.001C0.529102 320.001 0.449896 319.983 0.375997 319.95C0.302099 319.916 0.234957 319.867 0.178398 319.805C0.121838 319.743 0.0769674 319.67 0.0463576 319.589C0.0157479 319.508 0 319.421 0 319.333C0 319.246 0.0157479 319.159 0.0463576 319.078C0.0769674 318.997 0.121838 318.924 0.178398 318.862C0.234957 318.8 0.302099 318.751 0.375997 318.717C0.449896 318.684 0.529102 318.666 0.609089 318.666L439.391 318.494C439.552 318.495 439.707 318.565 439.82 318.69C439.934 318.815 439.998 318.985 439.998 319.161C439.998 319.338 439.934 319.507 439.82 319.632C439.707 319.757 439.552 319.828 439.391 319.828Z" fill="#CACACA"/>
</g>
<defs>
<clipPath id="clip0_831_59954">
<rect width="440" height="320" fill="white"/>
</clipPath>
</defs>
</svg>
