<svg width="22" height="22" viewBox="0 0 22 22" fill="none" xmlns="http://www.w3.org/2000/svg">
<path fill-rule="evenodd" clip-rule="evenodd" d="M8.40483 1.89701C9.10023 1.30445 9.97753 0.9678 10.8908 0.943057C11.8041 0.918315 12.6984 1.20697 13.4248 1.76101L13.5948 1.89701L13.9708 2.21701C14.2445 2.45064 14.5762 2.6061 14.9308 2.66701L15.1088 2.68901L15.6018 2.72901C16.5151 2.80188 17.3757 3.18605 18.0397 3.81729C18.7037 4.44853 19.1309 5.28859 19.2498 6.19701L19.2708 6.39701L19.3108 6.89101C19.3391 7.24933 19.4635 7.59339 19.6708 7.88701L19.7808 8.02901L20.1028 8.40501C20.6954 9.10041 21.032 9.97771 21.0568 10.891C21.0815 11.8043 20.7929 12.6985 20.2388 13.425L20.1028 13.595L19.7818 13.971C19.5482 14.2447 19.3927 14.5764 19.3318 14.931L19.3098 15.109L19.2708 15.602C19.198 16.5153 18.8138 17.3759 18.1825 18.0399C17.5513 18.7039 16.7112 19.1311 15.8028 19.25L15.6018 19.271L15.1088 19.311C14.7505 19.3393 14.4064 19.4637 14.1128 19.671L13.9708 19.782L13.5938 20.102C12.8985 20.6947 12.0213 21.0315 11.108 21.0565C10.1947 21.0814 9.30041 20.7929 8.57383 20.239L8.40483 20.103L8.02883 19.782C7.75514 19.5484 7.42348 19.3929 7.06883 19.332L6.89083 19.311L6.39783 19.271C5.48455 19.1981 4.62398 18.814 3.95997 18.1827C3.29596 17.5515 2.86877 16.7114 2.74983 15.803L2.72883 15.603L2.68883 15.109C2.6605 14.7507 2.53614 14.4066 2.32883 14.113L2.21783 13.971L1.89683 13.594C1.30426 12.8986 0.967617 12.0213 0.942874 11.108C0.918132 10.1947 1.20678 9.30048 1.76083 8.57401L1.89683 8.40501L2.21683 8.02901C2.45046 7.75532 2.60592 7.42366 2.66683 7.06901L2.68883 6.89101L2.72883 6.39801C2.80169 5.48474 3.18586 4.62416 3.81711 3.96015C4.44835 3.29615 5.28841 2.86896 6.19683 2.75001L6.39683 2.72901L6.89083 2.68901C7.24914 2.66069 7.59321 2.53633 7.88683 2.32901L8.02883 2.21801L8.40483 1.89701ZM13.4998 12C13.102 12 12.7205 12.158 12.4392 12.4393C12.1579 12.7207 11.9998 13.1022 11.9998 13.5C11.9998 13.8978 12.1579 14.2794 12.4392 14.5607C12.7205 14.842 13.102 15 13.4998 15C13.8976 15 14.2792 14.842 14.5605 14.5607C14.8418 14.2794 14.9998 13.8978 14.9998 13.5C14.9998 13.1022 14.8418 12.7207 14.5605 12.4393C14.2792 12.158 13.8976 12 13.4998 12ZM13.2928 7.29301L7.29283 13.293C7.19732 13.3853 7.12113 13.4956 7.06872 13.6176C7.01631 13.7396 6.98873 13.8708 6.98758 14.0036C6.98642 14.1364 7.01172 14.2681 7.062 14.391C7.11229 14.5139 7.18654 14.6255 7.28043 14.7194C7.37432 14.8133 7.48598 14.8875 7.60887 14.9378C7.73177 14.9881 7.86345 15.0134 7.99623 15.0123C8.12901 15.0111 8.26023 14.9835 8.38223 14.9311C8.50423 14.8787 8.61458 14.8025 8.70683 14.707L14.7068 8.70701C14.889 8.51841 14.9898 8.2658 14.9875 8.00361C14.9852 7.74141 14.8801 7.4906 14.6946 7.30519C14.5092 7.11978 14.2584 7.01461 13.9962 7.01233C13.734 7.01006 13.4814 7.11085 13.2928 7.29301ZM8.49983 7.00001C8.102 7.00001 7.72047 7.15804 7.43917 7.43935C7.15786 7.72065 6.99983 8.10218 6.99983 8.50001C6.99983 8.89783 7.15786 9.27936 7.43917 9.56067C7.72047 9.84197 8.102 10 8.49983 10C8.89765 10 9.27918 9.84197 9.56049 9.56067C9.84179 9.27936 9.99983 8.89783 9.99983 8.50001C9.99983 8.10218 9.84179 7.72065 9.56049 7.43935C9.27918 7.15804 8.89765 7.00001 8.49983 7.00001Z" fill="#E5E5E5"/>
</svg>
