<svg width="22" height="22" viewBox="0 0 22 22" fill="none" xmlns="http://www.w3.org/2000/svg">
<path fill-rule="evenodd" clip-rule="evenodd" d="M8.40873 1.89683C9.10414 1.30426 9.98144 0.967617 10.8947 0.942874C11.808 0.918132 12.7023 1.20678 13.4287 1.76083L13.5987 1.89683L13.9747 2.21683C14.2484 2.45046 14.5801 2.60592 14.9347 2.66683L15.1127 2.68883L15.6057 2.72883C16.519 2.80169 17.3796 3.18586 18.0436 3.81711C18.7076 4.44835 19.1348 5.28841 19.2537 6.19683L19.2747 6.39683L19.3147 6.89083C19.3431 7.24914 19.4674 7.59321 19.6747 7.88683L19.7847 8.02883L20.1067 8.40483C20.6993 9.10023 21.0359 9.97753 21.0607 10.8908C21.0854 11.8041 20.7968 12.6984 20.2427 13.4248L20.1067 13.5948L19.7857 13.9708C19.5521 14.2445 19.3966 14.5762 19.3357 14.9308L19.3137 15.1088L19.2747 15.6018C19.2019 16.5151 18.8177 17.3757 18.1864 18.0397C17.5552 18.7037 16.7151 19.1309 15.8067 19.2498L15.6057 19.2708L15.1127 19.3108C14.7544 19.3391 14.4104 19.4635 14.1167 19.6708L13.9747 19.7818L13.5977 20.1018C12.9024 20.6945 12.0252 21.0314 11.1119 21.0563C10.1986 21.0812 9.30431 20.7927 8.57773 20.2388L8.40873 20.1028L8.03273 19.7818C7.75904 19.5482 7.42739 19.3927 7.07273 19.3318L6.89473 19.3108L6.40173 19.2708C5.48846 19.198 4.62788 18.8138 3.96388 18.1825C3.29987 17.5513 2.87268 16.7112 2.75373 15.8028L2.73273 15.6028L2.69273 15.1088C2.66441 14.7505 2.54005 14.4064 2.33273 14.1128L2.22173 13.9708L1.90073 13.5938C1.30817 12.8984 0.971523 12.0211 0.946781 11.1078C0.922038 10.1945 1.21069 9.30029 1.76473 8.57383L1.90073 8.40483L2.22073 8.02883C2.45436 7.75514 2.60983 7.42348 2.67073 7.06883L2.69273 6.89083L2.73273 6.39783C2.8056 5.48455 3.18977 4.62398 3.82101 3.95997C4.45226 3.29596 5.29231 2.86877 6.20073 2.74983L6.40073 2.72883L6.89473 2.68883C7.25305 2.6605 7.59711 2.53614 7.89073 2.32883L8.03273 2.21783L8.40873 1.89683ZM13.5037 11.9998C13.1059 11.9998 12.7244 12.1579 12.4431 12.4392C12.1618 12.7205 12.0037 13.102 12.0037 13.4998C12.0037 13.8976 12.1618 14.2792 12.4431 14.5605C12.7244 14.8418 13.1059 14.9998 13.5037 14.9998C13.9016 14.9998 14.2831 14.8418 14.5644 14.5605C14.8457 14.2792 15.0037 13.8976 15.0037 13.4998C15.0037 13.102 14.8457 12.7205 14.5644 12.4392C14.2831 12.1579 13.9016 11.9998 13.5037 11.9998ZM13.2967 7.29283L7.29673 13.2928C7.20122 13.3851 7.12504 13.4954 7.07263 13.6174C7.02022 13.7394 6.99264 13.8706 6.99148 14.0034C6.99033 14.1362 7.01563 14.2679 7.06591 14.3908C7.11619 14.5137 7.19044 14.6253 7.28434 14.7192C7.37823 14.8131 7.48988 14.8874 7.61278 14.9376C7.73567 14.9879 7.86735 15.0132 8.00013 15.0121C8.13291 15.0109 8.26413 14.9833 8.38614 14.9309C8.50814 14.8785 8.61848 14.8023 8.71073 14.7068L14.7107 8.70683C14.8929 8.51822 14.9937 8.26562 14.9914 8.00342C14.9891 7.74123 14.884 7.49042 14.6986 7.30501C14.5131 7.1196 14.2623 7.01443 14.0001 7.01215C13.7379 7.00987 13.4853 7.11067 13.2967 7.29283ZM8.50373 6.99983C8.10591 6.99983 7.72438 7.15786 7.44307 7.43917C7.16177 7.72047 7.00373 8.102 7.00373 8.49983C7.00373 8.89765 7.16177 9.27918 7.44307 9.56049C7.72438 9.84179 8.10591 9.99983 8.50373 9.99983C8.90156 9.99983 9.28309 9.84179 9.56439 9.56049C9.8457 9.27918 10.0037 8.89765 10.0037 8.49983C10.0037 8.102 9.8457 7.72047 9.56439 7.43917C9.28309 7.15786 8.90156 6.99983 8.50373 6.99983Z" fill="#E5E5E5"/>
</svg>
