<svg width="19" height="11" viewBox="0 0 19 11" fill="none" xmlns="http://www.w3.org/2000/svg">
<path d="M18.6976 1.5442L10.0844 10.5849C10.0044 10.6689 9.9094 10.7356 9.80483 10.7811C9.70027 10.8266 9.58819 10.85 9.475 10.85C9.36181 10.85 9.24973 10.8266 9.14517 10.7811C9.0406 10.7356 8.94561 10.6689 8.86562 10.5849L0.252415 1.5442C0.0907964 1.37456 -1.70293e-09 1.14447 0 0.904568C1.70293e-09 0.664662 0.0907964 0.434581 0.252415 0.264941C0.414034 0.095302 0.633236 1.78744e-09 0.861799 0C1.09036 -1.78744e-09 1.30956 0.095302 1.47118 0.264941L9.475 8.6671L17.4788 0.264941C17.5588 0.180944 17.6538 0.114315 17.7584 0.0688557C17.863 0.0233969 17.975 0 18.0882 0C18.2014 0 18.3134 0.0233969 18.418 0.0688557C18.5226 0.114315 18.6176 0.180944 18.6976 0.264941C18.7776 0.348938 18.8411 0.448657 18.8844 0.558405C18.9277 0.668152 18.95 0.785779 18.95 0.904568C18.95 1.02336 18.9277 1.14098 18.8844 1.25073C18.8411 1.36048 18.7776 1.4602 18.6976 1.5442Z" fill="url(#paint0_linear_293_5950)"/>
<defs>
<linearGradient id="paint0_linear_293_5950" x1="0" y1="0" x2="19.4872" y2="1.07044" gradientUnits="userSpaceOnUse">
<stop stop-color="#FEBFFF"/>
<stop offset="1" stop-color="#00FFFF"/>
</linearGradient>
</defs>
</svg>
