<svg width="25" height="24" viewBox="0 0 25 24" fill="none" xmlns="http://www.w3.org/2000/svg">
<g clip-path="url(#clip0_70_101)">
<path d="M24.4885 12.2244C24.4885 11.2412 24.4069 10.5236 24.2301 9.77954H12.739V14.2175H19.484C19.3481 15.3204 18.6138 16.9814 16.9819 18.0975L16.959 18.246L20.5923 20.9962L20.844 21.0208C23.1558 18.9346 24.4885 15.8652 24.4885 12.2244Z" fill="url(#paint0_linear_70_101)"/>
<path d="M24.4885 12.2244C24.4885 11.2412 24.4069 10.5236 24.2301 9.77954H12.739V14.2175H19.484C19.3481 15.3204 18.6138 16.9814 16.9819 18.0975L16.959 18.246L20.5923 20.9962L20.844 21.0208C23.1558 18.9346 24.4885 15.8652 24.4885 12.2244Z" fill="url(#paint1_linear_70_101)"/>
<path d="M12.739 23.9176C16.0435 23.9176 18.8177 22.8545 20.844 21.0209L16.9819 18.0976C15.9484 18.8018 14.5612 19.2934 12.739 19.2934C9.50248 19.2934 6.75551 17.2074 5.77629 14.324L5.63276 14.3359L1.85483 17.1927L1.80542 17.3269C3.81804 21.2334 7.95214 23.9176 12.739 23.9176Z" fill="url(#paint2_linear_70_101)"/>
<path d="M12.739 23.9176C16.0435 23.9176 18.8177 22.8545 20.844 21.0209L16.9819 18.0976C15.9484 18.8018 14.5612 19.2934 12.739 19.2934C9.50248 19.2934 6.75551 17.2074 5.77629 14.324L5.63276 14.3359L1.85483 17.1927L1.80542 17.3269C3.81804 21.2334 7.95214 23.9176 12.739 23.9176Z" fill="url(#paint3_linear_70_101)"/>
<path d="M5.77634 14.324C5.51797 13.58 5.36844 12.7826 5.36844 11.9589C5.36844 11.135 5.51797 10.3378 5.76275 9.59366L5.75591 9.43519L1.93062 6.53247L1.80547 6.59064C0.975969 8.21174 0.5 10.0322 0.5 11.9589C0.5 13.8855 0.975969 15.7059 1.80547 17.327L5.77634 14.324Z" fill="url(#paint4_linear_70_101)"/>
<path d="M5.77634 14.324C5.51797 13.58 5.36844 12.7826 5.36844 11.9589C5.36844 11.135 5.51797 10.3378 5.76275 9.59366L5.75591 9.43519L1.93062 6.53247L1.80547 6.59064C0.975969 8.21174 0.5 10.0322 0.5 11.9589C0.5 13.8855 0.975969 15.7059 1.80547 17.327L5.77634 14.324Z" fill="url(#paint5_linear_70_101)"/>
<path d="M12.739 4.62403C15.0372 4.62403 16.5875 5.59402 17.4714 6.40461L20.9255 3.10928C18.8042 1.1826 16.0435 0 12.739 0C7.95214 0 3.81804 2.68406 1.80542 6.59056L5.7627 9.59359C6.75551 6.7102 9.50248 4.62403 12.739 4.62403Z" fill="url(#paint6_linear_70_101)"/>
<path d="M12.739 4.62403C15.0372 4.62403 16.5875 5.59401 17.4714 6.40461L20.9255 3.10928C18.8042 1.1826 16.0435 0 12.739 0C7.95214 0 3.81804 2.68406 1.80542 6.59056L5.7627 9.59359C6.75551 6.7102 9.50248 4.62403 12.739 4.62403Z" fill="url(#paint7_linear_70_101)"/>
</g>
<defs>
<linearGradient id="paint0_linear_70_101" x1="12.739" y1="9.77954" x2="24.845" y2="10.1775" gradientUnits="userSpaceOnUse">
<stop stop-color="#FEBFFF"/>
<stop offset="1" stop-color="#00FFFF"/>
</linearGradient>
<linearGradient id="paint1_linear_70_101" x1="12.739" y1="9.77954" x2="24.845" y2="10.1775" gradientUnits="userSpaceOnUse">
<stop stop-color="#FEBFFF"/>
<stop offset="1" stop-color="#00FFFF"/>
</linearGradient>
<linearGradient id="paint2_linear_70_101" x1="1.80542" y1="14.324" x2="21.3666" y2="15.5449" gradientUnits="userSpaceOnUse">
<stop stop-color="#FEBFFF"/>
<stop offset="1" stop-color="#00FFFF"/>
</linearGradient>
<linearGradient id="paint3_linear_70_101" x1="1.80542" y1="14.324" x2="21.3666" y2="15.5449" gradientUnits="userSpaceOnUse">
<stop stop-color="#FEBFFF"/>
<stop offset="1" stop-color="#00FFFF"/>
</linearGradient>
<linearGradient id="paint4_linear_70_101" x1="0.5" y1="6.53247" x2="5.941" y2="6.61612" gradientUnits="userSpaceOnUse">
<stop stop-color="#FEBFFF"/>
<stop offset="1" stop-color="#00FFFF"/>
</linearGradient>
<linearGradient id="paint5_linear_70_101" x1="0.5" y1="6.53247" x2="5.941" y2="6.61612" gradientUnits="userSpaceOnUse">
<stop stop-color="#FEBFFF"/>
<stop offset="1" stop-color="#00FFFF"/>
</linearGradient>
<linearGradient id="paint6_linear_70_101" x1="1.80542" y1="0" x2="21.4497" y2="1.23134" gradientUnits="userSpaceOnUse">
<stop stop-color="#FEBFFF"/>
<stop offset="1" stop-color="#00FFFF"/>
</linearGradient>
<linearGradient id="paint7_linear_70_101" x1="1.80542" y1="0" x2="21.4497" y2="1.23134" gradientUnits="userSpaceOnUse">
<stop stop-color="#FEBFFF"/>
<stop offset="1" stop-color="#00FFFF"/>
</linearGradient>
<clipPath id="clip0_70_101">
<rect width="24" height="24" fill="white" transform="translate(0.5)"/>
</clipPath>
</defs>
</svg>
