<svg width="80" height="80" viewBox="0 0 80 80" fill="none" xmlns="http://www.w3.org/2000/svg">
<rect width="80" height="80" rx="16" fill="#FEBFFF"/>
<path d="M8.53446 67.9513C8.32932 67.9513 8.18895 67.8918 8.11337 67.7728C8.03779 67.6538 8 67.5239 8 67.3833C8 66.7125 8.06478 65.9443 8.19435 65.0787C8.33472 64.2131 8.50207 63.3529 8.69642 62.4982C8.86918 61.7733 9.05813 61.097 9.26328 60.4695C9.47923 59.842 9.66818 59.328 9.83014 58.9277C10.0677 58.3651 10.3376 57.9377 10.6399 57.6456C10.9531 57.3426 11.3148 57.1911 11.7251 57.1911C12.0274 57.1911 12.2973 57.2939 12.5349 57.4995C12.7724 57.6942 12.9128 58.0513 12.9559 58.5706C13.0207 59.1982 13.0963 59.8311 13.1827 60.4695C13.2691 61.1079 13.3662 61.6921 13.4742 62.2223C13.5822 62.7416 13.6956 63.142 13.8143 63.4233C13.9115 63.6721 14.0519 63.7966 14.2354 63.7966C14.4406 63.7966 14.6187 63.6667 14.7699 63.407C14.9103 63.169 15.0614 62.8444 15.2234 62.4333C15.3853 62.0221 15.5419 61.5893 15.6931 61.1349C15.855 60.6697 15.9954 60.2477 16.1141 59.869C16.2545 59.4579 16.4111 59.0467 16.5838 58.6356C16.7674 58.2136 16.9995 57.8674 17.2803 57.5969C17.561 57.3156 17.9119 57.1749 18.333 57.1749C18.7217 57.1749 18.997 57.3102 19.159 57.5806C19.3317 57.8403 19.4181 58.2569 19.4181 58.8303C19.4181 59.2739 19.4019 59.7392 19.3695 60.2261C19.3587 60.5074 19.3425 60.7995 19.3209 61.1025C19.3101 61.3946 19.3047 61.6975 19.3047 62.0113C19.3047 62.4982 19.3263 63.0121 19.3695 63.5531C19.4235 64.0941 19.5207 64.6026 19.661 65.0787C19.8122 65.5548 20.0336 65.9551 20.3251 66.2797C20.4115 66.3554 20.487 66.442 20.5518 66.5393C20.6274 66.6367 20.6652 66.7449 20.6652 66.8639C20.6652 67.1344 20.5194 67.3833 20.2279 67.6105C19.9472 67.8269 19.6233 67.9351 19.2562 67.9351C18.9214 67.9351 18.6731 67.8269 18.5111 67.6105C18.3492 67.3941 18.2196 67.102 18.1224 66.7341C18.0145 66.2797 17.9389 65.7928 17.8957 65.2734C17.8525 64.7541 17.8309 64.251 17.8309 63.7641C17.8309 62.9851 17.8579 62.271 17.9119 61.6218C17.9767 60.9618 18.0091 60.4749 18.0091 60.1611C18.0091 59.988 17.9929 59.8636 17.9605 59.7879C17.9281 59.7013 17.8471 59.658 17.7175 59.658C17.5664 59.658 17.4368 59.7284 17.3288 59.869C17.2317 59.9988 17.1507 60.1828 17.0859 60.4208C16.9455 60.8752 16.789 61.3621 16.6162 61.8815C16.4435 62.4008 16.2599 62.9093 16.0656 63.407C15.882 63.9048 15.6823 64.3484 15.4663 64.7379C15.218 65.1923 14.948 65.5007 14.6565 65.6629C14.3758 65.8144 14.0897 65.8902 13.7981 65.8902C13.3446 65.8902 12.9991 65.7495 12.7616 65.4682C12.5349 65.1761 12.3675 64.8569 12.2595 64.5107C12.1192 64.0454 11.9896 63.4395 11.8708 62.6929C11.7521 61.9356 11.6657 61.0862 11.6117 60.1449C11.5901 59.7446 11.4605 59.5444 11.223 59.5444C10.9639 59.5444 10.7587 59.7392 10.6075 60.1287C10.478 60.5182 10.3538 60.978 10.235 61.5082C10.1163 62.0275 10.0191 62.5739 9.94351 63.1474C9.87872 63.71 9.84633 64.2672 9.84633 64.819C9.84633 65.2843 9.86253 65.69 9.89492 66.0362C9.93811 66.3825 9.9597 66.707 9.9597 67.01C9.9597 67.2264 9.87333 67.4049 9.70057 67.5456C9.53861 67.6862 9.34426 67.789 9.11752 67.8539C8.89077 67.9189 8.69642 67.9513 8.53446 67.9513Z" fill="black"/>
<path d="M25.7232 68C24.5895 68 23.742 67.7025 23.1805 67.1074C22.619 66.5015 22.3383 65.5548 22.3383 64.2672C22.3383 64.0508 22.3437 63.8236 22.3545 63.5856C22.3761 63.3475 22.3977 63.1149 22.4193 62.8877C22.4409 62.6713 22.4571 62.4549 22.4679 62.2385C22.4787 62.0221 22.4841 61.8274 22.4841 61.6543C22.4841 61.0051 22.4571 60.4424 22.4031 59.9664C22.3491 59.4903 22.1871 59.0359 21.9172 58.6031C21.8308 58.4624 21.7876 58.3488 21.7876 58.2623C21.7876 58.1216 21.8632 57.9864 22.0144 57.8565C22.1763 57.7159 22.3653 57.5969 22.5812 57.4995C22.7972 57.4021 23.0023 57.3534 23.1967 57.3534C23.4558 57.3534 23.6394 57.44 23.7473 57.6131C23.8661 57.7862 23.9417 58.0026 23.9741 58.2623C24.0065 58.5111 24.0227 58.7654 24.0227 59.0251C24.0227 59.2956 24.0065 59.5931 23.9741 59.9177C23.9525 60.2423 23.9147 60.5939 23.8607 60.9726C23.8175 61.3838 23.7743 61.8166 23.7312 62.271C23.6988 62.7146 23.6826 63.1636 23.6826 63.618C23.6826 64.2456 23.7905 64.7487 24.0065 65.1274C24.2332 65.4952 24.5356 65.7657 24.9135 65.9389C25.3022 66.1011 25.734 66.1823 26.2091 66.1823C27.0405 66.1823 27.6668 65.9713 28.0879 65.5493C28.5089 65.1166 28.8005 64.5539 28.9624 63.8615C29.038 63.5477 29.0974 63.1906 29.1406 62.7903C29.1838 62.3792 29.2054 61.9626 29.2054 61.5406C29.2054 61.0105 29.1676 60.502 29.092 60.0151C29.0272 59.5282 28.8922 59.1008 28.6871 58.7329C28.6439 58.6464 28.6061 58.5706 28.5737 58.5057C28.5413 58.4408 28.5251 58.3705 28.5251 58.2947C28.5251 58.1433 28.5899 57.9972 28.7195 57.8565C28.8491 57.7051 29.011 57.586 29.2054 57.4995C29.3997 57.4021 29.5995 57.3534 29.8046 57.3534C30.1501 57.3534 30.3823 57.4995 30.501 57.7916C30.6198 58.0838 30.6792 58.4246 30.6792 58.8141C30.6792 59.0521 30.6576 59.3983 30.6144 59.8528C30.582 60.3072 30.5334 60.7941 30.4686 61.3134C30.4039 61.8328 30.3391 62.3251 30.2743 62.7903C30.2095 63.2447 30.1501 63.5964 30.0961 63.8452C29.8262 65.1328 29.3511 66.1498 28.6709 66.8964C27.9907 67.6321 27.0081 68 25.7232 68Z" fill="black"/>
<path d="M32.1008 67.9513C31.8956 67.9513 31.7553 67.8918 31.6797 67.7728C31.6041 67.6538 31.5663 67.5239 31.5663 67.3833C31.5663 66.7125 31.6311 65.9443 31.7607 65.0787C31.901 64.2131 32.0684 63.3529 32.2627 62.4982C32.4355 61.7733 32.6244 61.097 32.8296 60.4695C33.0455 59.842 33.2345 59.328 33.3964 58.9277C33.634 58.3651 33.9039 57.9377 34.2062 57.6456C34.5194 57.3426 34.8811 57.1911 35.2914 57.1911C35.5937 57.1911 35.8636 57.2939 36.1012 57.4995C36.3387 57.6942 36.4791 58.0513 36.5222 58.5706C36.587 59.1982 36.6626 59.8311 36.749 60.4695C36.8354 61.1079 36.9325 61.6921 37.0405 62.2223C37.1485 62.7416 37.2619 63.142 37.3806 63.4233C37.4778 63.6721 37.6182 63.7966 37.8017 63.7966C38.0069 63.7966 38.185 63.6667 38.3362 63.407C38.4766 63.169 38.6277 62.8444 38.7897 62.4333C38.9516 62.0221 39.1082 61.5893 39.2594 61.1349C39.4213 60.6697 39.5617 60.2477 39.6804 59.869C39.8208 59.4579 39.9774 59.0467 40.1501 58.6356C40.3337 58.2136 40.5658 57.8674 40.8465 57.5969C41.1273 57.3156 41.4782 57.1749 41.8993 57.1749C42.288 57.1749 42.5633 57.3102 42.7253 57.5806C42.898 57.8403 42.9844 58.2569 42.9844 58.8303C42.9844 59.2739 42.9682 59.7392 42.9358 60.2261C42.925 60.5074 42.9088 60.7995 42.8872 61.1025C42.8764 61.3946 42.871 61.6975 42.871 62.0113C42.871 62.4982 42.8926 63.0121 42.9358 63.5531C42.9898 64.0941 43.087 64.6026 43.2273 65.0787C43.3785 65.5548 43.5999 65.9551 43.8914 66.2797C43.9778 66.3554 44.0533 66.442 44.1181 66.5393C44.1937 66.6367 44.2315 66.7449 44.2315 66.8639C44.2315 67.1344 44.0857 67.3833 43.7942 67.6105C43.5135 67.8269 43.1896 67.9351 42.8224 67.9351C42.4877 67.9351 42.2394 67.8269 42.0774 67.6105C41.9155 67.3941 41.7859 67.102 41.6887 66.7341C41.5808 66.2797 41.5052 65.7928 41.462 65.2734C41.4188 64.7541 41.3972 64.251 41.3972 63.7641C41.3972 62.9851 41.4242 62.271 41.4782 61.6218C41.543 60.9618 41.5754 60.4749 41.5754 60.1611C41.5754 59.988 41.5592 59.8636 41.5268 59.7879C41.4944 59.7013 41.4134 59.658 41.2838 59.658C41.1327 59.658 41.0031 59.7284 40.8951 59.869C40.798 59.9988 40.717 60.1828 40.6522 60.4208C40.5118 60.8752 40.3553 61.3621 40.1825 61.8815C40.0098 62.4008 39.8262 62.9093 39.6319 63.407C39.4483 63.9048 39.2486 64.3484 39.0326 64.7379C38.7843 65.1923 38.5143 65.5007 38.2228 65.6629C37.9421 65.8144 37.656 65.8902 37.3644 65.8902C36.9109 65.8902 36.5654 65.7495 36.3279 65.4682C36.1012 65.1761 35.9338 64.8569 35.8258 64.5107C35.6855 64.0454 35.5559 63.4395 35.4371 62.6929C35.3183 61.9356 35.232 61.0862 35.178 60.1449C35.1564 59.7446 35.0268 59.5444 34.7893 59.5444C34.5301 59.5444 34.325 59.7392 34.1738 60.1287C34.0443 60.5182 33.9201 60.978 33.8013 61.5082C33.6826 62.0275 33.5854 62.5739 33.5098 63.1474C33.445 63.71 33.4126 64.2672 33.4126 64.819C33.4126 65.2843 33.4288 65.69 33.4612 66.0362C33.5044 66.3825 33.526 66.707 33.526 67.01C33.526 67.2264 33.4396 67.4049 33.2669 67.5456C33.1049 67.6862 32.9106 67.789 32.6838 67.8539C32.4571 67.9189 32.2627 67.9513 32.1008 67.9513Z" fill="black"/>
<path d="M48.0011 67.9838C47.1049 67.9838 46.4625 67.7728 46.0738 67.3508C45.6851 66.918 45.4907 66.35 45.4907 65.6467C45.4907 65.4628 45.5069 65.241 45.5393 64.9813C45.5717 64.7216 45.6149 64.4079 45.6689 64.04C45.7553 63.5098 45.82 63.0392 45.8632 62.628C45.9064 62.2061 45.928 61.7462 45.928 61.2485C45.928 60.6751 45.9118 60.2098 45.8794 59.8528C45.6959 59.961 45.5609 60.0151 45.4745 60.0151C45.3018 60.0151 45.2154 59.8203 45.2154 59.4308C45.2154 59.1279 45.2802 58.8736 45.4097 58.668C45.5501 58.4516 45.7769 58.2515 46.09 58.0675C46.4031 57.8728 46.7972 57.7051 47.2723 57.5644C47.7581 57.4238 48.2764 57.3534 48.8271 57.3534C49.7233 57.3534 50.4035 57.559 50.8678 57.9701C51.332 58.3813 51.5642 58.9223 51.5642 59.5931C51.5642 60.0259 51.4724 60.4262 51.2889 60.7941C51.1053 61.162 50.8462 61.4865 50.5115 61.7679C51.8611 61.9843 52.5359 62.7633 52.5359 64.1049C52.5359 64.8298 52.3308 65.4898 51.9205 66.0849C51.5102 66.68 50.9541 67.1452 50.2523 67.4807C49.5721 67.8161 48.8217 67.9838 48.0011 67.9838ZM48.6489 66.1823C49.1348 66.1823 49.5721 66.1174 49.9608 65.9875C50.3603 65.8469 50.6788 65.6467 50.9164 65.387C51.1539 65.1274 51.2727 64.8244 51.2727 64.4782C51.2727 64.0346 51.1161 63.7208 50.803 63.5369C50.4899 63.3529 50.1282 63.261 49.7179 63.261C49.5451 63.261 49.3292 63.2772 49.07 63.3097C48.962 63.3313 48.8379 63.3421 48.6975 63.3421C48.46 63.3421 48.2602 63.2447 48.0983 63.05C47.9471 62.8552 47.8715 62.6118 47.8715 62.3197C47.8715 62.1141 47.9633 61.9843 48.1469 61.9302C49.4641 61.5839 50.1228 60.9834 50.1228 60.1287C50.1228 59.447 49.6531 59.1062 48.7137 59.1062C48.3682 59.1062 47.9417 59.1657 47.4342 59.2847C47.4342 59.8149 47.4072 60.3721 47.3533 60.9564C47.2993 61.5298 47.2183 62.1303 47.1103 62.7579C47.0455 63.1907 46.9915 63.5585 46.9484 63.8615C46.916 64.1536 46.8998 64.3916 46.8998 64.5756C46.8998 65.1598 47.0455 65.5764 47.3371 65.8252C47.6286 66.0633 48.0659 66.1823 48.6489 66.1823Z" fill="black"/>
<path d="M56.9912 68C56.257 68 55.6901 67.9188 55.2906 67.7566C54.8911 67.5943 54.6158 67.3671 54.4646 67.0749C54.3135 66.7828 54.2379 66.4366 54.2379 66.0362C54.2379 65.8415 54.2541 65.6251 54.2865 65.387C54.3189 65.1382 54.3567 64.8569 54.3999 64.5431C54.5942 63.3529 54.6914 62.298 54.6914 61.3784C54.6914 60.7724 54.6644 60.2585 54.6104 59.8365C54.5672 59.4038 54.4269 58.9926 54.1893 58.6031C54.1461 58.5382 54.1083 58.4733 54.0759 58.4083C54.0435 58.3326 54.0274 58.2731 54.0274 58.2298C54.0274 58.1 54.1029 57.9647 54.2541 57.8241C54.4053 57.6834 54.5888 57.5644 54.8048 57.467C55.0207 57.3697 55.2259 57.321 55.4202 57.321C55.7873 57.321 56.014 57.467 56.1004 57.7592C56.1976 58.0513 56.2462 58.4679 56.2462 59.0088C56.2462 59.2144 56.2246 59.5444 56.1814 59.9988C56.1382 60.4424 56.0734 61.0105 55.9871 61.7029C55.9007 62.3738 55.8359 62.9526 55.7927 63.4395C55.7495 63.9264 55.7279 64.3159 55.7279 64.608C55.7279 65.0408 55.7765 65.3708 55.8737 65.598C55.9817 65.8144 56.1544 65.9659 56.392 66.0525C56.6295 66.139 56.9642 66.1823 57.3961 66.1823C57.8604 66.1823 58.3031 66.1444 58.7242 66.0687C59.1453 65.9821 59.5556 65.8523 59.9551 65.6792C60.009 65.6575 60.0576 65.6413 60.1008 65.6305C60.144 65.6197 60.1818 65.6143 60.2142 65.6143C60.3114 65.6143 60.4031 65.6738 60.4895 65.7928C60.5759 65.9118 60.6191 66.0795 60.6191 66.2959C60.6191 66.772 60.36 67.1452 59.8417 67.4157C59.1507 67.8052 58.2005 68 56.9912 68Z" fill="black"/>
<path d="M64.7299 68C63.7042 68 62.943 67.8377 62.4463 67.5131C61.9604 67.1777 61.7175 66.5556 61.7175 65.6467C61.7175 65.4628 61.7283 65.241 61.7499 64.9813C61.7823 64.7216 61.8255 64.4079 61.8795 64.04C61.9658 63.5098 62.0306 63.0392 62.0738 62.628C62.117 62.2061 62.1386 61.7462 62.1386 61.2485C62.1386 60.9239 62.1278 60.6102 62.1062 60.3072C62.0954 60.0043 62.0684 59.7175 62.0252 59.447C61.8633 59.4795 61.7553 59.4957 61.7013 59.4957C61.6149 59.4957 61.5555 59.4795 61.5231 59.447C61.4908 59.4038 61.4746 59.328 61.4746 59.2198C61.4746 58.9926 61.5016 58.7708 61.5555 58.5544C61.6095 58.3272 61.6851 58.1433 61.7823 58.0026C61.9658 57.7429 62.2466 57.5915 62.6245 57.5482C62.916 57.5157 63.2723 57.4833 63.6934 57.4508C64.1253 57.4183 64.5626 57.3967 65.0053 57.3859C65.4588 57.3642 65.8636 57.3534 66.22 57.3534C67.2133 57.3534 67.8018 57.3751 67.9853 57.4183C68.266 57.4616 68.4064 57.6131 68.4064 57.8728C68.4064 58.1974 68.293 58.4949 68.0663 58.7654C67.9475 58.9277 67.8288 59.0467 67.71 59.1224C67.5912 59.1874 67.4239 59.2144 67.2079 59.2036C66.7328 59.1711 66.3171 59.1495 65.9608 59.1387C65.6045 59.1279 65.3562 59.1224 65.2158 59.1224C64.9675 59.1224 64.7083 59.1279 64.4384 59.1387C64.1793 59.1495 63.9147 59.1657 63.6448 59.1874C63.6448 59.5661 63.6286 59.9718 63.5962 60.4046C63.5638 60.8374 63.5206 61.2918 63.4667 61.7679C63.9633 61.7354 64.5248 61.7138 65.151 61.7029C65.7773 61.6813 66.3333 61.6705 66.8192 61.6705C67.0352 61.6705 67.1809 61.6921 67.2565 61.7354C67.3429 61.7787 67.3861 61.8923 67.3861 62.0762C67.3861 62.2493 67.3375 62.4441 67.2403 62.6605C67.1539 62.8661 67.0352 63.0446 66.884 63.1961C66.8192 63.261 66.749 63.3151 66.6734 63.3584C66.5979 63.3908 66.4953 63.4016 66.3657 63.3908C65.9014 63.3692 65.3724 63.3529 64.7785 63.3421C64.1955 63.3313 63.6826 63.3313 63.2399 63.3421C63.1967 63.591 63.1643 63.8182 63.1427 64.0238C63.1211 64.2293 63.1103 64.4133 63.1103 64.5756C63.1103 65.1707 63.2615 65.5872 63.5638 65.8252C63.8662 66.0633 64.3628 66.1823 65.0539 66.1823C65.4749 66.1823 65.8798 66.1444 66.2685 66.0687C66.668 65.993 67.0729 65.8523 67.4832 65.6467C67.6344 65.5602 67.7478 65.5169 67.8234 65.5169C67.9421 65.5169 68.0555 65.6034 68.1635 65.7766C68.2822 65.9389 68.3416 66.1174 68.3416 66.3121C68.3416 66.5502 68.2498 66.7774 68.0663 66.9938C67.8935 67.1993 67.6614 67.3779 67.3699 67.5293C67.0352 67.6808 66.6357 67.7944 66.1714 67.8702C65.7071 67.9567 65.2266 68 64.7299 68Z" fill="black"/>
<path d="M70.9149 67.9351C70.6125 67.9351 70.3642 67.8377 70.1699 67.643C69.9863 67.4482 69.8945 67.1993 69.8945 66.8964C69.8945 66.5826 69.9971 66.323 70.2023 66.1174C70.4074 65.9118 70.6719 65.809 70.9958 65.809C71.2982 65.809 71.5411 65.901 71.7247 66.0849C71.9082 66.2689 72 66.5123 72 66.8152C72 67.1398 71.8974 67.4103 71.6923 67.6267C71.4871 67.8323 71.228 67.9351 70.9149 67.9351Z" fill="black"/>
<path d="M39.6792 30.2582C41.3563 30.2582 42.7159 28.8958 42.7159 27.2152C42.7159 25.5346 41.3563 24.1721 39.6792 24.1721C38.002 24.1721 36.6424 25.5346 36.6424 27.2152C36.6424 28.8958 38.002 30.2582 39.6792 30.2582Z" fill="black"/>
<path d="M39.6792 12C36.6761 12 33.7405 12.8924 31.2436 14.5642C28.7467 16.2361 26.8005 18.6124 25.6513 21.3926C24.5021 24.1728 24.2014 27.2321 24.7873 30.1835C25.3731 33.135 26.8192 35.8461 28.9427 37.9739C31.0662 40.1018 33.7717 41.5509 36.717 42.138C39.6623 42.7251 42.7153 42.4238 45.4897 41.2722C48.2642 40.1206 50.6355 38.1704 52.3039 35.6683C53.9723 33.1662 54.8628 30.2245 54.8628 27.2152C54.8628 23.1799 53.2631 19.3098 50.4156 16.4564C47.5682 13.603 43.7061 12 39.6792 12ZM39.6792 32.2869C38.6782 32.2869 37.6996 31.9895 36.8673 31.4322C36.035 30.8749 35.3863 30.0828 35.0032 29.1561C34.6202 28.2293 34.5199 27.2096 34.7152 26.2257C34.9105 25.2419 35.3925 24.3382 36.1004 23.6289C36.8082 22.9196 37.71 22.4366 38.6918 22.2409C39.6736 22.0452 40.6912 22.1457 41.616 22.5295C42.5408 22.9134 43.3313 23.5634 43.8874 24.3975C44.4436 25.2315 44.7404 26.2121 44.7404 27.2152C44.7404 28.5603 44.2072 29.8503 43.258 30.8014C42.3088 31.7526 41.0215 32.2869 39.6792 32.2869ZM49.4271 24.3142C49.1787 24.4145 48.9008 24.4122 48.6541 24.3076C48.4075 24.203 48.2122 24.0048 48.1112 23.7563C47.6608 22.6453 46.995 21.6348 46.1523 20.7834C45.3096 19.932 44.3067 19.2566 43.2018 18.7961C43.0698 18.7519 42.9483 18.6808 42.845 18.5874C42.7417 18.4939 42.6586 18.3802 42.6012 18.2531C42.5437 18.1261 42.513 17.9886 42.5109 17.8491C42.5089 17.7097 42.5355 17.5713 42.5893 17.4426C42.643 17.314 42.7226 17.1978 42.8232 17.1014C42.9237 17.0049 43.0431 16.9303 43.1737 16.8822C43.3043 16.8341 43.4435 16.8134 43.5824 16.8216C43.7213 16.8298 43.8571 16.8666 43.9812 16.9297C45.3354 17.4931 46.5638 18.3216 47.5945 19.3667C48.6252 20.4117 49.4375 21.6523 49.9838 23.0158C50.0778 23.2623 50.0721 23.5357 49.9682 23.7781C49.8643 24.0205 49.6702 24.2128 49.4271 24.3142Z" fill="black"/>
</svg>
