<svg width="22" height="22" viewBox="0 0 22 22" fill="none" xmlns="http://www.w3.org/2000/svg">
<path d="M5.0002 0.919951C5.0002 0.256351 4.46259 0.199951 3.8002 0.199951C3.1366 0.199951 2.6002 0.256351 2.6002 0.919951V11H5.0002V0.919951ZM2.6002 21.08C2.6002 21.7411 3.1366 21.7999 3.8002 21.7999C4.46259 21.7999 5.0002 21.7411 5.0002 21.08V17H2.6002V21.08ZM6.679 12.2H0.918995C0.255395 12.2 0.200195 12.7376 0.200195 13.4V14.6C0.200195 15.2635 0.255395 15.8 0.918995 15.8H6.68019C7.3402 15.8 7.4002 15.2635 7.4002 14.6V13.4C7.4002 12.7376 7.3402 12.2 6.679 12.2ZM21.079 13.4H15.3178C14.6554 13.4 14.6002 13.9376 14.6002 14.6V15.8C14.6002 16.4636 14.6554 17 15.319 17H21.0802C21.7402 17 21.8002 16.4636 21.8002 15.8V14.6C21.8002 13.9376 21.7402 13.4 21.079 13.4ZM14.6002 7.39995C14.6002 6.73755 14.5402 6.19995 13.879 6.19995H8.11899C7.45539 6.19995 7.4002 6.73755 7.4002 7.39995V8.59995C7.4002 9.26355 7.45539 9.79995 8.11899 9.79995H13.8802C14.5402 9.79995 14.6002 9.26355 14.6002 8.59995V7.39995ZM12.2002 0.919951C12.2002 0.256351 11.6626 0.199951 11.0002 0.199951C10.3366 0.199951 9.80019 0.256351 9.80019 0.919951V4.99995H12.2002V0.919951ZM9.80019 21.08C9.80019 21.7411 10.3366 21.7999 11.0002 21.7999C11.6626 21.7999 12.2002 21.7411 12.2002 21.08V11H9.80019V21.08ZM19.4002 0.919951C19.4002 0.256351 18.8626 0.199951 18.2002 0.199951C17.5366 0.199951 17.0002 0.256351 17.0002 0.919951V12.2H19.4002V0.919951ZM17.0002 21.08C17.0002 21.7411 17.5366 21.7999 18.2002 21.7999C18.8626 21.7999 19.4002 21.7411 19.4002 21.08V18.1999H17.0002V21.08Z" fill="white"/>
</svg>
