<svg width="54" height="54" viewBox="0 0 54 54" fill="none" xmlns="http://www.w3.org/2000/svg">
<path d="M21.6663 37.6666C22.4219 37.6666 23.0557 37.4106 23.5677 36.8986C24.0797 36.3866 24.3348 35.7537 24.333 34.9999V18.9333C24.333 18.1777 24.077 17.5555 23.565 17.0666C23.053 16.5777 22.4201 16.3333 21.6663 16.3333C20.9108 16.3333 20.277 16.5893 19.765 17.1013C19.253 17.6133 18.9979 18.2461 18.9997 18.9999V35.0666C18.9997 35.8221 19.2557 36.4444 19.7677 36.9333C20.2797 37.4221 20.9126 37.6666 21.6663 37.6666ZM32.333 37.6666C33.0886 37.6666 33.7223 37.4106 34.2343 36.8986C34.7463 36.3866 35.0015 35.7537 34.9997 34.9999V18.9333C34.9997 18.1777 34.7437 17.5555 34.2317 17.0666C33.7197 16.5777 33.0868 16.3333 32.333 16.3333C31.5775 16.3333 30.9437 16.5893 30.4317 17.1013C29.9197 17.6133 29.6646 18.2461 29.6663 18.9999V35.0666C29.6663 35.8221 29.9223 36.4444 30.4343 36.9333C30.9463 37.4221 31.5792 37.6666 32.333 37.6666ZM26.9997 53.6666C23.3108 53.6666 19.8441 52.9661 16.5997 51.5653C13.3552 50.1644 10.533 48.2648 8.13301 45.8666C5.73301 43.4666 3.83345 40.6444 2.43434 37.3999C1.03523 34.1555 0.334786 30.6888 0.333008 26.9999C0.333008 23.311 1.03345 19.8444 2.43434 16.5999C3.83523 13.3555 5.73479 10.5333 8.13301 8.13325C10.533 5.73325 13.3552 3.8337 16.5997 2.43459C19.8441 1.03547 23.3108 0.33503 26.9997 0.333252C30.6886 0.333252 34.1552 1.0337 37.3997 2.43459C40.6441 3.83547 43.4663 5.73503 45.8663 8.13325C48.2663 10.5333 50.1668 13.3555 51.5677 16.5999C52.9686 19.8444 53.6681 23.311 53.6663 26.9999C53.6663 30.6888 52.9659 34.1555 51.565 37.3999C50.1641 40.6444 48.2646 43.4666 45.8663 45.8666C43.4663 48.2666 40.6441 50.167 37.3997 51.5679C34.1552 52.9688 30.6886 53.6684 26.9997 53.6666Z" fill="#FEBFFF"/>
</svg>
