<svg width="14" height="21" viewBox="0 0 14 21" fill="none" xmlns="http://www.w3.org/2000/svg">
<path fill-rule="evenodd" clip-rule="evenodd" d="M6.99997 -8.8942e-06C8.78397 -8.8942e-06 10.253 0.156991 11.377 0.346991C12.516 0.538991 13.085 0.634991 13.561 1.22099C14.037 1.80699 14.011 2.43999 13.961 3.70599C13.789 8.05499 12.851 13.486 7.74997 13.966V17.5H9.17997C9.41107 17.5001 9.63498 17.5803 9.81364 17.7269C9.9923 17.8735 10.1147 18.0774 10.16 18.304L10.35 19.25H13C13.1989 19.25 13.3897 19.329 13.5303 19.4697C13.671 19.6103 13.75 19.8011 13.75 20C13.75 20.1989 13.671 20.3897 13.5303 20.5303C13.3897 20.671 13.1989 20.75 13 20.75H0.999973C0.80106 20.75 0.610295 20.671 0.469642 20.5303C0.32899 20.3897 0.249973 20.1989 0.249973 20C0.249973 19.8011 0.32899 19.6103 0.469642 19.4697C0.610295 19.329 0.80106 19.25 0.999973 19.25H3.64997L3.83997 18.304C3.88527 18.0774 4.00765 17.8735 4.18631 17.7269C4.36497 17.5803 4.58888 17.5001 4.81997 17.5H6.24997V13.966C1.14997 13.486 0.211972 8.05399 0.0399725 3.70599C-0.0110275 2.43999 -0.0360274 1.80599 0.439973 1.22099C0.914973 0.634991 1.48397 0.538991 2.62297 0.346991C4.06979 0.109867 5.53386 -0.00620126 6.99997 -8.8942e-06ZM7.95197 4.19899L7.85397 4.02299C7.47397 3.33999 7.28397 2.99999 6.99997 2.99999C6.71597 2.99999 6.52597 3.33999 6.14597 4.02299L6.04797 4.19899C5.93997 4.39299 5.88597 4.48899 5.80197 4.55299C5.71697 4.61699 5.61197 4.64099 5.40197 4.68799L5.21197 4.73199C4.47397 4.89899 4.10497 4.98199 4.01697 5.26399C3.92897 5.54699 4.18097 5.84099 4.68397 6.42899L4.81397 6.58099C4.95697 6.74799 5.02897 6.83099 5.06097 6.93499C5.09297 7.03899 5.08197 7.14999 5.06097 7.37299L5.04097 7.57599C4.96497 8.36099 4.92697 8.75399 5.15597 8.92799C5.38597 9.10199 5.73197 8.94299 6.42297 8.62499L6.60097 8.54299C6.79797 8.45299 6.89597 8.40799 6.99997 8.40799C7.10397 8.40799 7.20197 8.45299 7.39897 8.54299L7.57697 8.62499C8.26797 8.94399 8.61397 9.10199 8.84397 8.92799C9.07397 8.75399 9.03497 8.36099 8.95897 7.57599L8.93897 7.37299C8.91797 7.14999 8.90697 7.03899 8.93897 6.93499C8.97097 6.83199 9.04297 6.74799 9.18597 6.58099L9.31597 6.42899C9.81897 5.84099 10.071 5.54699 9.98297 5.26399C9.89497 4.98199 9.52597 4.89899 8.78797 4.73199L8.59797 4.68799C8.38797 4.64099 8.28297 4.61799 8.19797 4.55299C8.11397 4.48899 8.05997 4.39299 7.95197 4.19899Z" fill="#FFD705"/>
</svg>
