<svg width="13" height="8" viewBox="0 0 13 8" fill="none" xmlns="http://www.w3.org/2000/svg">
<path d="M12.4651 1.69548L6.72292 7.72258C6.66959 7.77862 6.60626 7.82308 6.53656 7.85341C6.46685 7.88374 6.39213 7.89935 6.31667 7.89935C6.24121 7.89935 6.16648 7.88374 6.09678 7.85341C6.02707 7.82308 5.96374 7.77862 5.91041 7.72258L0.168277 1.69548C0.0605309 1.58239 -1.13529e-09 1.429 0 1.26906C1.13529e-09 1.10912 0.0605309 0.955736 0.168277 0.842643C0.276022 0.72955 0.422157 0.666016 0.574533 0.666016C0.726908 0.666016 0.873043 0.72955 0.980789 0.842643L6.31667 6.44408L11.6525 0.842643C11.7059 0.786645 11.7692 0.742225 11.8389 0.711919C11.9086 0.681614 11.9834 0.666016 12.0588 0.666016C12.1342 0.666016 12.209 0.681614 12.2787 0.711919C12.3484 0.742225 12.4117 0.786645 12.4651 0.842643C12.5184 0.898641 12.5607 0.965121 12.5896 1.03829C12.6185 1.11145 12.6333 1.18987 12.6333 1.26906C12.6333 1.34825 12.6185 1.42667 12.5896 1.49984C12.5607 1.573 12.5184 1.63948 12.4651 1.69548Z" fill="white"/>
</svg>
