<svg width="30" height="29" viewBox="0 0 30 29" fill="none" xmlns="http://www.w3.org/2000/svg">
<path d="M27.7538 10.0667L19.6871 9.36667L16.5371 1.95C15.9704 0.6 14.0371 0.6 13.4704 1.95L10.3204 9.38333L2.27045 10.0667C0.803783 10.1833 0.203783 12.0167 1.32045 12.9833L7.43712 18.2833L5.60378 26.15C5.27045 27.5833 6.82045 28.7167 8.08712 27.95L15.0038 23.7833L21.9204 27.9667C23.1871 28.7333 24.7371 27.6 24.4038 26.1667L22.5704 18.2833L28.6871 12.9833C29.8038 12.0167 29.2204 10.1833 27.7538 10.0667ZM15.0038 20.6667L8.73712 24.45L10.4038 17.3167L4.87045 12.5167L12.1704 11.8833L15.0038 5.16667L17.8538 11.9L25.1538 12.5333L19.6204 17.3333L21.2871 24.4667L15.0038 20.6667Z" fill="white"/>
</svg>
