<svg width="19" height="17" viewBox="0 0 19 17" fill="none" xmlns="http://www.w3.org/2000/svg">
<path d="M9.49838 14.2742L5.34838 16.7742C5.16504 16.8909 4.97338 16.9409 4.77338 16.9242C4.57338 16.9076 4.39838 16.8409 4.24838 16.7242C4.09838 16.6076 3.98171 16.4616 3.89838 16.2862C3.81504 16.1109 3.79838 15.9152 3.84838 15.6992L4.94838 10.9742L1.27338 7.79922C1.10671 7.64922 1.00271 7.47822 0.961376 7.28622C0.920042 7.09422 0.932376 6.90689 0.998376 6.72422C1.06504 6.54089 1.16504 6.39089 1.29838 6.27422C1.43171 6.15755 1.61504 6.08255 1.84838 6.04922L6.69838 5.62422L8.57338 1.17422C8.65671 0.974219 8.78604 0.824219 8.96138 0.724219C9.13671 0.624219 9.31571 0.574219 9.49838 0.574219C9.68171 0.574219 9.86071 0.624219 10.0354 0.724219C10.21 0.824219 10.3394 0.974219 10.4234 1.17422L12.2984 5.62422L17.1484 6.04922C17.3817 6.08255 17.565 6.15755 17.6984 6.27422C17.8317 6.39089 17.9317 6.54089 17.9984 6.72422C18.065 6.90755 18.0777 7.09522 18.0364 7.28722C17.995 7.47922 17.8907 7.64989 17.7234 7.79922L14.0484 10.9742L15.1484 15.6992C15.1984 15.9159 15.1817 16.1119 15.0984 16.2872C15.015 16.4626 14.8984 16.6082 14.7484 16.7242C14.5984 16.8409 14.4234 16.9076 14.2234 16.9242C14.0234 16.9409 13.8317 16.8909 13.6484 16.7742L9.49838 14.2742Z" fill="#FFD705"/>
</svg>
