<svg width="12" height="19" viewBox="0 0 12 19" fill="none" xmlns="http://www.w3.org/2000/svg">
<path d="M5.99977 2V10.55C5.05977 10.01 3.89977 9.8 2.66977 10.23C1.32977 10.71 0.299765 11.9 0.0597651 13.3C-0.0511856 13.9299 -0.00971736 14.5773 0.180703 15.1879C0.371123 15.7986 0.704962 16.3547 1.15431 16.81C1.60366 17.2652 2.15545 17.6062 2.76356 17.8046C3.37168 18.0029 4.01843 18.0528 4.64977 17.95C6.60977 17.64 7.99977 15.84 7.99977 13.85V4H9.99977C11.0998 4 11.9998 3.1 11.9998 2C11.9998 0.9 11.0998 0 9.99977 0H7.99977C6.89977 0 5.99977 0.9 5.99977 2Z" fill="#E5E5E5"/>
</svg>
