<svg width="18" height="10" viewBox="0 0 18 10" fill="none" xmlns="http://www.w3.org/2000/svg">
<path d="M17.0306 9.53073C16.9609 9.60046 16.8782 9.65578 16.7871 9.69352C16.6961 9.73127 16.5985 9.75069 16.4999 9.75069C16.4014 9.75069 16.3038 9.73127 16.2127 9.69352C16.1217 9.65578 16.039 9.60046 15.9693 9.53073L8.99993 2.56041L2.03055 9.53073C1.88982 9.67146 1.69895 9.75052 1.49993 9.75052C1.30091 9.75052 1.11003 9.67146 0.969304 9.53073C0.828573 9.39 0.749512 9.19912 0.749512 9.0001C0.749512 8.80108 0.828573 8.61021 0.969304 8.46948L8.4693 0.969476C8.53896 0.899744 8.62168 0.844425 8.71272 0.806682C8.80377 0.768939 8.90137 0.749512 8.99993 0.749512C9.09849 0.749512 9.19608 0.768939 9.28713 0.806682C9.37818 0.844425 9.4609 0.899744 9.53055 0.969476L17.0306 8.46948C17.1003 8.53913 17.1556 8.62185 17.1933 8.7129C17.2311 8.80395 17.2505 8.90154 17.2505 9.0001C17.2505 9.09866 17.2311 9.19626 17.1933 9.28731C17.1556 9.37836 17.1003 9.46107 17.0306 9.53073Z" fill="url(#paint0_linear_293_17282)"/>
<defs>
<linearGradient id="paint0_linear_293_17282" x1="0.749512" y1="0.749512" x2="17.7131" y2="1.72756" gradientUnits="userSpaceOnUse">
<stop stop-color="#FEBFFF"/>
<stop offset="1" stop-color="#00FFFF"/>
</linearGradient>
</defs>
</svg>
