<svg width="48" height="45" viewBox="0 0 48 45" fill="none" xmlns="http://www.w3.org/2000/svg">
<path d="M47.3327 9.66659V16.6666H34.4993V28.5899C30.206 29.5699 26.9393 33.2099 26.426 37.6666H5.33268C4.09501 37.6666 2.90802 37.1749 2.03285 36.2998C1.15768 35.4246 0.666016 34.2376 0.666016 32.9999V4.99992C0.666016 2.40992 2.74268 0.333252 5.33268 0.333252H19.3327L23.9993 4.99992H42.666C43.9037 4.99992 45.0907 5.49158 45.9658 6.36675C46.841 7.24192 47.3327 8.42891 47.3327 9.66659ZM39.166 21.3333V33.4899C38.3711 33.1418 37.5086 32.9754 36.6413 33.0028C35.7739 33.0303 34.9236 33.2509 34.1523 33.6486C33.3811 34.0463 32.7083 34.6111 32.1829 35.3018C31.6576 35.9925 31.2929 36.7917 31.1156 37.6411C30.9383 38.4906 30.9527 39.3689 31.1578 40.2121C31.3629 41.0553 31.7536 41.8421 32.3013 42.5152C32.849 43.1882 33.54 43.7306 34.3239 44.1028C35.1078 44.475 35.9649 44.6676 36.8327 44.6666C38.3798 44.6666 39.8635 44.052 40.9575 42.958C42.0514 41.8641 42.666 40.3804 42.666 38.8333V25.9999H47.3327V21.3333H39.166Z" fill="white"/>
</svg>
