<svg width="38" height="37" viewBox="0 0 38 37" fill="none" xmlns="http://www.w3.org/2000/svg">
<path d="M19 27.3333C18.3389 27.3333 17.7844 27.1093 17.3364 26.6613C16.8884 26.2133 16.6652 25.6595 16.6667 25V8.31662L12.2917 12.6916C11.825 13.1583 11.2806 13.3916 10.6584 13.3916C10.0362 13.3916 9.47227 13.1388 8.96671 12.6333C8.50004 12.1666 8.27682 11.6128 8.29704 10.972C8.31727 10.3311 8.54049 9.79595 8.96671 9.36662L17.3667 0.966617C17.6 0.733284 17.8528 0.568395 18.125 0.471951C18.3973 0.375506 18.6889 0.326507 19 0.324951C19.3112 0.324951 19.6028 0.373951 19.875 0.471951C20.1473 0.569951 20.4 0.734839 20.6334 0.966617L29.0334 9.36662C29.5 9.83328 29.724 10.3878 29.7054 11.0303C29.6867 11.6727 29.4627 12.2071 29.0334 12.6333C28.5667 13.0999 28.0122 13.3434 27.3697 13.3636C26.7273 13.3838 26.1735 13.1598 25.7084 12.6916L21.3334 8.31662V25C21.3334 25.6611 21.1094 26.2156 20.6614 26.6636C20.2134 27.1116 19.6596 27.3348 19 27.3333ZM5.00004 36.6666C3.71671 36.6666 2.61771 36.2093 1.70304 35.2946C0.788378 34.38 0.331822 33.2817 0.333378 32V27.3333C0.333378 26.6722 0.557378 26.1176 1.00538 25.6696C1.45338 25.2216 2.00716 24.9984 2.66671 25C3.32782 25 3.88238 25.2239 4.33038 25.6719C4.77838 26.1199 5.0016 26.6737 5.00004 27.3333V32H33V27.3333C33 26.6722 33.224 26.1176 33.672 25.6696C34.12 25.2216 34.6738 24.9984 35.3334 25C35.9945 25 36.549 25.2239 36.997 25.6719C37.445 26.1199 37.6683 26.6737 37.6667 27.3333V32C37.6667 33.2833 37.2094 34.3823 36.2947 35.297C35.38 36.2116 34.2818 36.6682 33 36.6666H5.00004Z" fill="white"/>
</svg>
