<svg width="16" height="16" viewBox="0 0 16 16" fill="none" xmlns="http://www.w3.org/2000/svg">
<path d="M8 12.0008C7.71667 12.0008 7.479 11.9048 7.287 11.7128C7.095 11.5208 6.99934 11.2834 7 11.0008V3.85078L5.125 5.72578C4.925 5.92578 4.69167 6.02578 4.425 6.02578C4.15834 6.02578 3.91667 5.91745 3.7 5.70078C3.5 5.50078 3.40434 5.26345 3.413 4.98878C3.42167 4.71411 3.51733 4.48478 3.7 4.30078L7.3 0.700781C7.4 0.600781 7.50834 0.530114 7.625 0.488781C7.74167 0.447448 7.86667 0.426448 8 0.425781C8.13334 0.425781 8.25834 0.446781 8.375 0.488781C8.49167 0.530781 8.6 0.601448 8.7 0.700781L12.3 4.30078C12.5 4.50078 12.596 4.73845 12.588 5.01378C12.58 5.28911 12.484 5.51811 12.3 5.70078C12.1 5.90078 11.8623 6.00511 11.587 6.01378C11.3117 6.02245 11.0743 5.92645 10.875 5.72578L9 3.85078V11.0008C9 11.2841 8.904 11.5218 8.712 11.7138C8.52 11.9058 8.28267 12.0014 8 12.0008ZM2 16.0008C1.45 16.0008 0.979002 15.8048 0.587002 15.4128C0.195002 15.0208 -0.000664969 14.5501 1.69779e-06 14.0008V12.0008C1.69779e-06 11.7174 0.0960018 11.4798 0.288002 11.2878C0.480002 11.0958 0.717335 11.0001 1 11.0008C1.28333 11.0008 1.521 11.0968 1.713 11.2888C1.905 11.4808 2.00067 11.7181 2 12.0008V14.0008H14V12.0008C14 11.7174 14.096 11.4798 14.288 11.2878C14.48 11.0958 14.7173 11.0001 15 11.0008C15.2833 11.0008 15.521 11.0968 15.713 11.2888C15.905 11.4808 16.0007 11.7181 16 12.0008V14.0008C16 14.5508 15.804 15.0218 15.412 15.4138C15.02 15.8058 14.5493 16.0014 14 16.0008H2Z" fill="white"/>
</svg>
