<svg width="39" height="48" viewBox="0 0 39 48" fill="none" xmlns="http://www.w3.org/2000/svg">
<path d="M16.584 40.3334C18.0618 40.3334 19.3062 39.8279 20.3173 38.8168C21.3284 37.8056 21.834 36.5612 21.834 35.0834V26.3334H26.5007C27.1618 26.3334 27.7163 26.1094 28.1643 25.6614C28.6123 25.2134 28.8355 24.6596 28.834 24.0001C28.834 23.339 28.61 22.7844 28.162 22.3364C27.714 21.8884 27.1602 21.6652 26.5007 21.6668H21.834C21.1729 21.6668 20.6183 21.8908 20.1703 22.3388C19.7223 22.7868 19.4991 23.3405 19.5007 24.0001V30.7084C19.0729 30.3973 18.6155 30.1733 18.1287 30.0364C17.6418 29.8995 17.1269 29.8319 16.584 29.8334C15.1062 29.8334 13.8618 30.339 12.8507 31.3501C11.8395 32.3612 11.334 33.6056 11.334 35.0834C11.334 36.5612 11.8395 37.8056 12.8507 38.8168C13.8618 39.8279 15.1062 40.3334 16.584 40.3334ZM5.50066 47.3334C4.21732 47.3334 3.11832 46.8761 2.20365 45.9614C1.28899 45.0468 0.832433 43.9485 0.833988 42.6668V5.33342C0.833988 4.05009 1.29132 2.95108 2.20599 2.03642C3.12065 1.12175 4.21888 0.665196 5.50066 0.666752H22.2423C22.8645 0.666752 23.458 0.783419 24.0227 1.01675C24.5873 1.25009 25.0828 1.58064 25.509 2.00842L36.8257 13.3251C37.2534 13.7529 37.584 14.2491 37.8173 14.8138C38.0507 15.3784 38.1673 15.9711 38.1673 16.5918V42.6668C38.1673 43.9501 37.71 45.0491 36.7953 45.9638C35.8807 46.8784 34.7824 47.335 33.5007 47.3334H5.50066ZM24.1673 17.0001H33.5007L21.834 5.33342V14.6668C21.834 15.3279 22.058 15.8824 22.506 16.3304C22.954 16.7784 23.5078 17.0016 24.1673 17.0001Z" fill="white"/>
</svg>
